<svg height="35" viewBox="0 0 35 35" width="35" xmlns="http://www.w3.org/2000/svg"><path d="m34.834338 29.05953q0 2.696503-1.793222 4.258228-1.793219 1.561724-4.765544 1.561724h-21.4695155q-2.9723248 0-4.7655454-1.561724-1.79322039-1.561725-1.79322039-4.258228 0-1.190955.0859762-2.325734.0859762-1.134778.34390548-2.449323.25792866-1.314545.65096362-2.438088.3930345-1.123543 1.0562805-2.190908.6632459-1.067366 1.5230095-1.820139.8597625-.752774 2.1002782-1.202192 1.2405161-.449417 2.7389604-.449417.2210818 0 1.0317158.483124.8106336.483123 1.8300666 1.0786 1.019434.595478 2.652985 1.078601 1.633549.483124 3.279383.483124 1.645831 0 3.279381-.483124 1.633549-.483123 2.652983-1.078601 1.019435-.595477 1.830068-1.0786.810635-.483124 1.031716-.483124 1.498445 0 2.738959.449417 1.240516.449418 2.10028 1.202192.859763.752773 1.523008 1.820139.663247 1.067365 1.056282 2.190908.393035 1.123543.650964 2.438088.257928 1.314545.343904 2.449323.08598 1.134779.08598 2.325734zm-7.860694-20.0664755q0 3.5728665-2.763524 6.1008375-2.763524 2.527972-6.669305 2.527972-3.905782 0-6.669307-2.527972-2.7635242-2.527971-2.7635242-6.1008375 0-3.5728666 2.7635242-6.1008377 2.763525-2.52797114 6.669307-2.52797114 3.905781 0 6.669305 2.52797114 2.763524 2.5279711 2.763524 6.1008377z" fill="#AAA"/></svg>