<svg height="512" viewBox="0 0 512 512" width="512" xmlns="http://www.w3.org/2000/svg">
    <path d="m512.5295 425.51068q0 40.01641-26.56011 63.19267-26.56006 23.17613-70.58433 23.17613h-317.993339q-44.024258 0-70.584346-23.17613-26.56008429-23.17626-26.56008429-63.19267 0-17.67385 1.27342699-34.51414 1.2734269-16.84027 5.0937178-36.34836 3.8202815-19.50795 9.6416755-36.18157 5.821386-16.67348 15.64498-32.51323 9.823593-15.83991 22.557886-27.01111 12.734277-11.17135 31.108038-17.84066 18.373765-6.66944 40.567805-6.66944 3.27453 0 15.28114 7.16956 12.00662 7.1697 27.10583 16.00655 15.09924 8.837 39.2944 16.00657 24.19513 7.16971 48.57222 7.16971 24.37704 0 48.57218-7.16971 24.19513-7.16957 39.29436-16.00657 15.09925-8.83685 27.10585-16.00655 12.00664-7.16956 15.28115-7.16956 22.19405 0 40.56779 6.66944 18.37376 6.66931 31.10806 17.84066 12.73428 11.1712 22.55787 27.01111 9.8236 15.83975 15.64499 32.51323 5.8214 16.67362 9.64169 36.18157 3.82027 19.50809 5.0937 36.34836 1.27348 16.84029 1.27348 34.51414zm-116.4278-297.78913q0 53.02185-40.93163 90.53725-40.93163 37.5154-98.78166 37.5154-57.85006 0-98.7817-37.5154-40.93164-37.5154-40.93164-90.53725 0-53.021693 40.93164-90.53709 40.93164-37.51539704 98.7817-37.51539704 57.85003 0 98.78166 37.51539704 40.93163 37.515397 40.93163 90.53709z"
          fill="#AAA"/>
</svg>