<svg enable-background="new 0 0 800 800" height="800" viewBox="0 0 800 800" width="800" xmlns="http://www.w3.org/2000/svg"><path d="m787.865 371.874c-.094-.086-.185-.171-.276-.257l-93.825-91.547v-134.322c0-22.079-17.875-39.977-39.925-39.977h-132.151l-93.426-93.945c-15.526-15.676-40.807-15.78-56.463-.232-.077.077-.154.154-.23.232l-91.428 93.945h-134.151c-22.05 0-39.925 17.898-39.925 39.977v134.322l-93.824 91.547c-15.656 15.547-15.759 40.858-.232 56.536.077.077.154.153.232.23l93.824 93.546v132.323c0 22.078 17.875 39.976 39.925 39.976h134.149l93.425 93.947c15.527 15.675 40.807 15.779 56.461.231.078-.077.155-.154.231-.231l93.425-93.947h132.153c22.05 0 39.925-17.896 39.925-39.976v-132.322l93.823-93.546c15.112-16.08 14.342-41.381-1.717-56.51zm-161.973 105.281c-7.619 7.479-11.933 17.7-11.978 28.384v108.737h-108.597c-10.671.044-20.878 4.361-28.349 11.992l-76.538 76.637v-63.738-79.267c87.962-.28 159.185-71.761 159.185-159.9 0-88.142-71.223-159.621-159.185-159.901v-143.005l76.538 76.638c7.471 7.63 17.678 11.948 28.349 11.993h108.597v108.736c.045 10.684 4.356 20.905 11.978 28.384l77.055 77.155zm-225.46 2.786v-159.881c43.861.28 79.334 35.958 79.334 79.94 0 43.984-35.473 79.661-79.334 79.941z" fill="#6b7284"/></svg>