<svg enable-background="new 0 0 800 800" height="800" viewBox="0 0 800 800" width="800" xmlns="http://www.w3.org/2000/svg"><g fill="#6b7284"><path d="m778.027 671.974-174.999-175c-.489-.487-.995-.946-1.492-1.421 30.708-49.611 48.464-108.044 48.464-170.553 0-179.198-145.789-325-325-325s-325 145.802-325 325 145.789 325 325 325c62.511 0 120.943-17.756 170.553-48.466.475.499.934 1.005 1.421 1.492l175 175c14.635 14.651 33.837 21.974 53.026 21.974s38.39-7.325 53.027-21.974c29.297-29.271 29.297-76.781 0-106.052zm-678.027-346.974c0-124.072 100.94-225 225-225s225 100.928 225 225-100.94 225-225 225-225-100.928-225-225z"/><path d="m425 275h-50v-50c0-27.612-22.388-50-50-50s-50 22.388-50 50v50h-50c-27.611 0-50 22.388-50 50s22.389 50 50 50h50v50c0 27.612 22.388 50 50 50s50-22.388 50-50v-50h50c27.612 0 50-22.388 50-50s-22.388-50-50-50z"/></g></svg>