<svg enable-background="new 0 0 800 800" height="800" viewBox="0 0 800 800" width="800" xmlns="http://www.w3.org/2000/svg"><g fill="#6b7284"><path d="m521.188 189.548c-26.113 0-47.354 21.234-47.354 47.354.006 26.107 21.246 47.342 47.354 47.342 26.105 0 47.354-21.228 47.354-47.342-.001-26.113-21.241-47.354-47.354-47.354z"/><path d="m581.428 743.902h187.392c17.229 0 31.18-13.216 31.18-31.738v-621.045c0-18.524-13.949-35.021-31.18-35.021h-737.112c-17.232 0-31.708 16.497-31.708 35.021v621.045c0 18.531 14.476 31.738 31.708 31.738h187.391m402.329-346.321-118.184 127.075-179.893-193.356c-2.443-2.628-6.386-2.628-8.83 0l-114.102 122.652-52.09-55.988c-2.438-2.628-6.622-2.628-9.061 0l-83.022 89.003v-370.404h687.5v403.062l-113.492-122.044c-2.443-2.628-6.381-2.628-8.826 0z"/></g></svg>