<svg enable-background="new 0 0 800 800" height="800" viewBox="0 0 800 800" width="800" xmlns="http://www.w3.org/2000/svg"><g fill="#6b7284"><path d="m327.104 501.493c-6.894 0-13.784-2.636-19.034-7.905-32.606-32.733-49.166-77.421-46.626-125.833 2.482-47.35 23.057-92.708 57.933-127.719l80.246-80.558c10.472-10.512 27.481-10.546 37.994-.074 10.512 10.471 10.544 27.481.073 37.994l-80.245 80.558c-51.924 52.124-56.995 131.845-11.308 177.713 10.471 10.512 10.438 27.522-.073 37.991-5.243 5.224-12.103 7.833-18.96 7.833zm305.235-102.142c-6.86 0-13.718-2.609-18.96-7.833-10.512-10.471-10.545-27.481-.074-37.994l90.439-90.792c51.924-52.124 56.995-131.845 11.308-177.709-20.101-20.179-47.803-31.292-78.004-31.292-35.748 0-71.731 15.542-98.726 42.64-10.472 10.512-27.482 10.544-37.993.074-10.512-10.472-10.544-27.482-.072-37.994 37.003-37.146 86.862-58.451 136.792-58.451 44.592 0 85.812 16.727 116.068 47.103 32.607 32.733 49.167 77.422 46.629 125.833-2.483 47.348-23.059 92.706-57.935 127.718l-90.438 90.792c-5.25 5.268-12.143 7.904-19.034 7.905z"/><path d="m162.951 800c-.003 0 .003 0 0 0-44.593 0-85.814-16.729-116.07-47.104-32.607-32.732-49.166-77.42-46.628-125.831 2.482-47.349 23.057-92.706 57.933-127.72l90.439-90.795c10.472-10.512 27.481-10.545 37.993-.073 10.512 10.47 10.544 27.482.074 37.993l-90.439 90.795c-51.923 52.126-56.995 131.845-11.306 177.712 20.101 20.179 47.802 31.292 78.003 31.292 35.749 0 71.732-15.541 98.725-42.639l180.877-181.586c51.925-52.125 56.996-131.845 11.309-177.711-10.472-10.512-10.438-27.521.072-37.994 10.511-10.471 27.521-10.44 37.992.073 32.608 32.734 49.167 77.421 46.629 125.831-2.483 47.351-23.059 92.707-57.935 127.72l-180.876 181.587c-37.001 37.143-86.864 58.45-136.792 58.45z"/></g></svg>