<svg enable-background="new 0 0 800 800" height="800" viewBox="0 0 800 800" width="800" xmlns="http://www.w3.org/2000/svg"><g fill="#6b7284"><path d="m400 194.876c-110.707 0-200.485 84.409-200.485 188.545 0 123.66 87.473 155.183 87.473 227.131 0 17.788 13.854 34.332 34.66 46.485-4.352 3.558-6.779 7.456-6.779 11.541 0 5.48 4.387 10.604 11.928 14.995-7.074 4.307-11.183 9.26-11.183 14.554 0 5.345 4.196 10.349 11.426 14.689-7.386 4.357-11.686 9.446-11.686 14.842 0 6.604 6.346 12.647 16.957 17.566-4.109 3.659-6.467 7.711-6.467 11.966 0 12.596 19.991 23.303 48.097 27.592 4.941 8.987 14.963 15.217 26.65 15.217 11.669 0 21.673-6.179 26.614-15.132 28.384-4.222 48.6-14.996 48.6-27.626 0-4.204-2.271-8.204-6.294-11.812 10.838-4.953 17.305-11.081 17.305-17.736 0-5.345-4.18-10.365-11.426-14.689 7.368-4.374 11.686-9.43 11.686-14.825 0-5.48-4.404-10.604-11.929-15.013 7.108-4.289 11.2-9.26 11.2-14.553 0-4.238-2.618-8.239-7.3-11.881 20.478-12.137 34.088-28.511 34.088-46.146 0-71.982 87.369-103.489 87.369-227.131-.018-104.17-89.779-188.579-200.504-188.579zm104.69 305.227c-19.975 28.8-42.566 61.345-43.954 106.076-6.866 7.507-31.365 19.711-60.667 19.711-29.32 0-53.837-12.204-60.686-19.745-1.387-44.749-24.014-77.293-44.022-106.076-22.315-32.103-43.381-62.417-43.381-116.664 0-75.558 66.407-137.038 148.019-137.038 81.63 0 148.037 61.48 148.037 137.038.001 54.263-21.066 84.595-43.346 116.698z"/><path d="m400 128.749c14.426 0 26.233-15.319 26.233-34.042v-60.665c0-18.723-11.807-34.042-26.233-34.042s-26.233 15.319-26.233 34.042v60.664c0 18.741 11.807 34.043 26.233 34.043z"/><path d="m265.574 164.119c12.501-7.081 14.894-26.145 5.375-42.349l-30.88-52.544c-9.536-16.222-27.569-23.694-40.069-16.613-12.501 7.081-14.911 26.145-5.392 42.349l30.914 52.544c9.537 16.222 27.551 23.694 40.052 16.613z"/><path d="m150.238 221.396-53.489-30.332c-16.524-9.362-35.943-6.996-43.156 5.276s.381 29.958 16.923 39.319l53.506 30.332c16.523 9.361 35.943 6.996 43.138-5.277 7.196-12.272-.398-29.957-16.922-39.318z"/><path d="m729.502 549.702-53.508-30.315c-16.522-9.378-35.942-7.013-43.138 5.277-7.213 12.272.364 29.957 16.94 39.319l53.471 30.331c16.524 9.362 35.943 6.996 43.156-5.276 7.214-12.289-.38-29.975-16.921-39.336z"/><path d="m131.148 392.681c0-14.179-15.604-25.753-34.677-25.753h-61.794c-19.073 0-34.677 11.591-34.677 25.753s15.604 25.753 34.677 25.753h61.794c19.073 0 34.677-11.591 34.677-25.753z"/><path d="m765.323 366.928h-61.777c-19.09 0-34.677 11.591-34.677 25.753s15.587 25.753 34.677 25.753h61.777c19.09 0 34.677-11.591 34.677-25.753s-15.604-25.753-34.677-25.753z"/><path d="m124.005 519.387-53.506 30.315c-16.524 9.361-24.136 27.047-16.922 39.336 7.212 12.272 26.632 14.621 43.155 5.276l53.489-30.331c16.524-9.362 24.136-27.047 16.923-39.319-7.196-12.256-26.616-14.655-43.139-5.277z"/><path d="m675.994 265.991 53.508-30.332c16.523-9.362 24.135-27.047 16.922-39.319s-26.632-14.638-43.156-5.276l-53.488 30.332c-16.507 9.362-24.136 27.047-16.923 39.319 7.195 12.272 26.615 14.638 43.137 5.276z"/><path d="m600.018 52.596c-12.519-7.081-30.551.392-40.087 16.613l-30.88 52.544c-9.536 16.222-7.127 35.269 5.375 42.349 12.518 7.081 30.533-.392 40.069-16.613l30.915-52.544c9.519-16.205 7.092-35.268-5.392-42.349z"/></g></svg>