<svg enable-background="new 0 0 800 800" height="800" viewBox="0 0 800 800" width="800" xmlns="http://www.w3.org/2000/svg"><g fill="#6b7284"><path d="m277.781 138.609h-251.874c-14.308 0-25.907-11.573-25.907-25.851s11.599-25.852 25.907-25.852h251.875c14.309 0 25.908 11.573 25.908 25.852-.001 14.278-11.6 25.851-25.909 25.851z"/><path d="m133.854 425.852h-107.947c-14.308 0-25.907-11.574-25.907-25.852s11.599-25.852 25.907-25.852h107.947c14.309 0 25.907 11.573 25.907 25.852s-11.599 25.852-25.907 25.852z"/><path d="m793.905 367.795c-11.068-24.429-34.698-39.606-61.673-39.606h-85.277v-124.709l-51.814 50.576v99.987c0 14.279 11.598 25.853 25.907 25.853h111.188c9.288 0 13.206 6.434 14.459 9.2 1.248 2.752 3.489 9.899-2.602 16.805l-272.436 308.843c-3.102 3.535-6.89 5.326-11.261 5.326-6.192 0-16.021-4.234-16.021-15.59v-258.52c0-12.269-8.562-22.528-20.046-25.18l-52.281 51.031h20.511v232.666c0 18.98 7.562 36.418 21.29 49.1 12.52 11.559 29.481 18.193 46.544 18.195h.003c19.408 0 37.258-8.164 50.202-22.928l272.388-308.788c17.789-20.172 21.974-47.861 10.919-72.261z"/><path d="m307.284 471.812h6.919l52.97-51.703h-59.888c-9.006 0-12.903-6.395-14.162-9.144-1.277-2.79-3.593-10.013 2.38-16.951l272.358-308.757c3.099-3.536 6.888-5.328 11.259-5.328 6.195 0 16.021 4.235 16.021 15.592v102.074l51.814-50.575v-51.499c0-18.983-7.562-36.421-21.292-49.102-12.52-11.562-29.481-18.193-46.543-18.193-19.41 0-37.257 8.161-50.204 22.926l-272.382 308.787c-.044.05-.088.1-.131.15-17.583 20.245-21.572 47.966-10.413 72.354 11.112 24.28 34.599 39.369 61.294 39.369z"/><path d="m241.8 661.391h-63.974l-52.972 51.705h116.946c14.308 0 25.907-11.576 25.907-25.852 0-14.281-11.598-25.853-25.907-25.853z"/><path d="m119.98 661.391h-94.073c-14.308 0-25.907 11.574-25.907 25.853 0 14.275 11.599 25.852 25.907 25.852h41.101z"/><path d="m-135.799 365.081h1061.562v43.172h-1061.562z" transform="matrix(.7156 -.6985 .6985 .7156 -157.7581 385.8567)"/></g></svg>