<svg enable-background="new 448 448 128 128" height="128" viewBox="448 448 128 128" width="128" xmlns="http://www.w3.org/2000/svg"><path d="m525.834 527.411 3.597 3.725c-1.789.919-3.927 2.605-5.127 3.789-4.112 4.144-4.301 9.318 1.931 15.771 5.866 5.206 14.363 2.656 16.688-4.035l8.293.443c-.842 3.199-3.248 6.165-6.028 8.571-9.453 8.145-15.917 6.91-23.278-.709-8.281-8.573-9.005-15.472-1.932-22.789 2.013-2.073 4.663-4.181 5.856-4.766z" fill="#ff00a8"/><path d="m545.953 517.703c-7.455.756-10.953-1.071-12.685-4.727-1.331-2.261-3.384-20.306-6.846-39.271l6.986-.708 1.683 16.964c.392 3.951 2.268-1.56 7.881-2.289 7.693-.993 14.436 4.87 15.188 12.456.901 9.062-5.275 16.872-12.207 17.575zm.258-8.541c4.139-.738 7.271-4.195 6.842-8.516-.518-5.216-3.521-8.955-8.525-8.448-4.951.502-7.541 4.649-6.987 10.233.532 5.375 1.894 7.418 8.67 6.731z" fill="#00aeef"/><path d="m531.271 458.343c.031.063.079.117.137.157.057.04.124.063.192.07 2.823.284 5.399.964 7.728 2.043.268.124.546.179.836.166 6.764-.319 12.554 1.939 17.369 6.77 1.79 1.797 3.303 3.646 4.535 5.548 1.899 2.928 3.511 6.035 4.832 9.321.076.194.218.356.4.458.868.486 1.651 1.112 2.347 1.879.851.937 1.592 1.956 2.223 3.056 1.688 2.94 2.835 6.162 3.44 9.667.45 2.608.681 5.09.69 7.445.021 4.785-.571 9.438-1.774 13.958-.148.559-.202 1.088-.162 1.588.053.643.053 2.472.002 5.489-.084 4.999-1.162 9.763-3.236 14.286-1.389 3.031-3.041 5.759-4.957 8.184-.207.263-.376.483-.504.663-.146.204-.243.459-.298.763-.824 4.621-2.757 8.71-5.797 12.265-1.768 2.067-3.761 3.882-5.981 5.444-4.381 3.081-9.138 5.284-14.272 6.607-1.38.356-2.79.662-4.233.917-6.283 1.117-12.471.883-18.565-.7-2.702-.702-5.379-1.818-8.035-3.348-.354-.204-.659-.315-.918-.333-.227-.017-.451 0-.674.046-.197.042-.384.152-.561.334-1.212 1.234-2.497 2.275-3.854 3.123-1.03.644-2.137 1.119-3.321 1.431-1.151.304-2.333.414-3.546.333-2.715-.183-5.075-1.208-7.08-3.076-1.244-1.16-2.298-2.637-3.163-4.435-.015-.029-.036-.056-.062-.077-.026-.02-.057-.034-.09-.041-3.677-.729-7.192-1.934-10.544-3.615-2.146-1.076-4.081-2.431-5.806-4.063-1.088-1.032-2.031-2.134-2.827-3.305-1.58-2.324-2.655-4.902-3.224-7.73-.37-1.834-.545-3.686-.527-5.556.001-.032-.007-.064-.024-.092-.017-.026-.042-.048-.071-.061-3.116-1.455-5.703-3.575-7.76-6.359-1.545-2.09-2.755-4.365-3.628-6.825-1.48-4.172-2.306-8.653-2.475-13.443-.094-2.675.022-5.066.349-7.176.916-5.914 3.507-10.782 7.775-14.606.197-.175.307-.395.332-.66.435-4.463 2.027-8.292 4.777-11.484 2.261-2.623 4.997-4.675 8.208-6.157.166-.076.295-.214.362-.385 1.494-3.909 3.678-7.37 6.554-10.381 1.04-1.09 2.125-2.048 3.258-2.873 4.245-3.095 9.026-4.657 14.342-4.686.238 0 .439-.089.602-.266 2.805-3.009 5.863-5.478 9.175-7.405 3.381-1.969 7.027-3.036 10.938-3.201 3.422-.145 6.539.628 9.355 2.319 1.184.712 2.312 1.614 3.388 2.704 1.556 1.58 2.831 3.347 3.823 5.305zm-22.811 13.114c2.785-3.642 6.027-6.805 9.723-9.49 2.197-1.594 4.681-2.684 7.45-3.269.661-.138 1.359-.222 2.095-.252.716-.029 1.421-.032 2.117-.01.085.003.107-.034.067-.109-1.288-2.365-2.953-4.35-4.994-5.954-1.18-.929-2.429-1.648-3.748-2.16-2.202-.852-4.521-1.198-6.956-1.038-2.406.161-4.721.711-6.944 1.653-2.745 1.163-5.268 2.701-7.567 4.614-1.274 1.06-2.5 2.168-3.677 3.328-.074.071-.06.11.041.118 4.688.3 8.055 2.389 10.102 6.266.5.946.912 2.021 1.237 3.228.298 1.104.513 2.241.646 3.412.01.092.045.103.106.033.105-.123.206-.246.302-.37zm8.748.034c1.218-1.608 2.878-3.123 4.983-4.543 2.739-1.848 5.929-3.307 9.566-4.377.014-.003.025-.011.036-.019.011-.009.02-.02.025-.032.006-.012.01-.026.011-.039 0-.014-.002-.027-.007-.04l-1.118-2.621c-.021-.047-.054-.088-.098-.118s-.095-.048-.15-.053c-3.797-.336-7.311.521-10.54 2.573-1.343.849-2.611 1.799-3.808 2.849-2.901 2.547-5.483 5.362-7.743 8.445-.069.093-.105.2-.104.305l.03 2.979c0 .014.003.027.009.039.006.011.015.022.025.03.01.007.022.013.036.015.013.002.026.002.039-.002 1.932-.536 3.989-.945 6.17-1.229.069-.009.135-.035.19-.077.057-.042.101-.098.13-.162.645-1.423 1.417-2.731 2.318-3.923zm20.096-10.461c-1.674-.61-3.4-1.017-5.18-1.22-.011-.002-.022 0-.033.004-.011.005-.019.012-.025.021-.007.009-.011.021-.012.032-.001.012.001.024.006.034l.923 2.157c.012.027.032.049.06.062.025.013.057.017.087.01l4.166-.99c.127-.028.131-.065.008-.11zm-52.924 14.171c2.398 1.016 4.213 2.668 5.445 4.958 1.062 1.975 1.842 4.059 2.337 6.253.009.036.023.069.042.098.02.028.044.051.073.067.244.137.458.136.641-.002.573-.437 1.559-1.251 2.958-2.446 1.307-1.115 2.302-1.918 2.985-2.409 1.314-.942 2.689-1.801 4.125-2.575.065-.035.118-.084.158-.149 1.195-1.901 2.422-3.707 3.681-5.415.105-.142.158-.316.15-.493-.113-2.287-.577-4.409-1.391-6.367-.621-1.491-1.403-2.706-2.346-3.646-1.497-1.491-3.355-2.424-5.577-2.796-.794-.132-1.636-.214-2.526-.245-.095-.003-.189.014-.277.052-.087.038-.166.094-.228.167-3.993 4.518-7.43 9.444-10.308 14.777-.007.015-.013.032-.014.049s0 .034.006.049c.005.016.014.031.026.044.01.012.025.022.04.029zm-3.54-.699c.289.015.998.097 2.127.248.032.003.063-.002.092-.017.028-.015.052-.038.067-.066 2.827-5.167 6.14-9.993 9.937-14.477.048-.056.035-.083-.039-.08-4.642.213-8.801 1.635-12.477 4.266-1.127.807-2.218 1.761-3.271 2.862-2.518 2.632-4.512 5.658-5.983 9.078-.036.083-.012.108.074.077 1.811-.679 3.639-1.197 5.483-1.552 1.474-.286 2.804-.399 3.99-.339zm70.124-2.98c2.688 1.219 4.977 2.97 6.865 5.253 1.344 1.627 2.484 3.378 3.423 5.25.021.041.054.074.093.094.041.02.087.026.132.018 1.264-.233 2.562-.232 3.894.005.113.02.148-.024.103-.132-1.512-3.551-3.365-6.851-5.56-9.899-.601-.833-1.204-1.589-1.812-2.269-.646-.723-1.32-1.417-2.025-2.082-4.028-3.804-8.819-5.754-14.373-5.848-.105-.002-.114.029-.029.094 2.712 2.045 4.402 4.741 5.073 8.088.008.041.027.077.057.105s.065.048.105.055c1.413.26 2.764.683 4.054 1.268zm-8.463-7.172c-.947-.974-1.953-1.734-3.019-2.279-.062-.032-.132-.043-.203-.033-1.948.286-3.872.691-5.771 1.215-.014.003-.026.011-.038.02-.011.009-.02.02-.027.033s-.012.026-.013.041c-.001.014 0 .029.005.043.793 2.539 1.374 5.131 1.743 7.779.004.024.014.046.026.066s.03.037.05.049c.021.013.042.021.065.024.023.002.047 0 .069-.008 3.282-1.118 6.624-1.544 10.023-1.279.014.001.027 0 .039-.006.012-.005.022-.013.03-.023.01-.01.016-.022.019-.035.003-.012.003-.026-.001-.039-.509-2.186-1.509-4.042-2.997-5.568zm-23.588 11.192c2.26.032 4.505.241 6.733.626.068.011.138-.003.194-.042 2.559-1.734 5.261-3.192 8.109-4.373.029-.012.054-.034.07-.062.015-.028.022-.06.019-.092-.324-2.653-.911-5.276-1.761-7.869-.006-.018-.016-.034-.027-.048-.013-.014-.026-.025-.044-.034-.017-.008-.034-.013-.053-.013s-.038.003-.054.009c-.454.18-.909.345-1.365.496-3.276 1.071-6.298 2.637-9.064 4.698-2.353 1.75-4.188 3.946-5.509 6.588-.006.011-.009.023-.008.035 0 .012.004.024.01.034s.016.019.024.024c.011.006.022.008.034.008.951-.003 1.849.002 2.692.015zm41.548 32.014c.158.241.307.484.443.729.011.018.024.032.041.042.018.011.037.016.056.017.021 0 .04-.004.058-.014s.033-.023.043-.041c2.706-4.329 3.676-9.044 2.907-14.145-.542-3.603-1.636-7.092-3.277-10.468-.018-.036-.048-.065-.086-.081-.036-.016-.077-.017-.115-.005-.738.247-1.479.527-2.221.841-.012.005-.147.074-.404.208-.405.212-.711.119-.92-.28-.156-.302-.084-.531.217-.686.895-.463 1.847-.851 2.857-1.163.014-.004.025-.011.035-.021s.018-.021.022-.033c.006-.013.008-.026.007-.041 0-.014-.004-.027-.01-.039-.807-1.567-1.744-3.037-2.814-4.41-2.626-3.37-6.012-5.525-10.158-6.466-.013-.003-.026-.003-.039 0-.012.002-.023.008-.034.017s-.019.019-.024.031c-.006.012-.009.025-.009.038v1.968c0 .078-.021.149-.062.202-.301.393-.613.405-.936.037-.046-.053-.072-.121-.078-.195l-.165-2.214c-.004-.042-.021-.082-.051-.111-.03-.03-.068-.048-.109-.051-3.545-.302-6.92.122-10.126 1.272-.03.011-.056.031-.073.057-.018.027-.025.058-.022.087l.228 2.661c.032.374-.131.58-.489.62-.249.028-.438-.054-.562-.245-.071-.108-.116-.287-.135-.539-.053-.703-.116-1.386-.189-2.047-.001-.018-.008-.035-.018-.05s-.022-.028-.037-.037c-.016-.009-.033-.015-.051-.016s-.036.001-.053.009c-2.278.945-4.468 2.091-6.568 3.438-.118.076-.106.132.035.168l2.127.545c.063.017.122.062.165.127.247.372.216.644-.094.814-.168.093-.398.109-.688.048-.924-.196-1.814-.399-2.671-.609-.227-.056-.435-.014-.624.125-4.109 3.002-7.655 6.48-10.64 10.433-.021.03-.037.063-.045.097-.009.034-.01.068-.003.1l.466 2.255c.018.082.056.158.115.223.061.064.136.115.223.147 2.943 1.075 5.219 2.834 6.827 5.276.773 1.175 1.353 2.504 1.737 3.987.721 2.773.715 5.604-.02 8.493-.01.037-.011.076-.006.114.007.039.02.075.041.108.987 1.558 2.021 3.035 3.098 4.434.008.012.019.021.03.027.013.006.025.009.039.011.015 0 .027-.003.04-.008.013-.006.023-.014.033-.023l2.342-2.608c.03-.035.053-.076.065-.122.013-.045.016-.094.009-.144-.496-3.174-1.167-6.309-2.018-9.402-.082-.301-.107-.533-.078-.696.071-.374.321-.497.753-.37.076.022.145.063.201.12.055.057.096.127.117.204.832 2.987 1.499 5.947 1.999 8.881.028.168.096.183.201.045l1.636-2.137c.021-.027.049-.047.079-.062.031-.014.066-.021.102-.02.475.018.697.21.666.578-.018.187-.127.417-.33.692-.66.888-1.328 1.768-2.005 2.64-.021.027-.036.058-.044.09-.01.033-.012.067-.008.101.306 2.39.447 4.775.423 7.156-.002.016.002.03.008.044.006.015.014.027.024.038.011.01.023.019.038.023.014.006.028.01.044.009 1.666-.03 3.32-.099 4.962-.206 2.169-.141 4.406-.057 6.713.249.036.005.072-.002.104-.021.03-.021.053-.05.063-.084.334-1.02.864-1.938 1.592-2.761.379-.426.709-.438.99-.035.163.232.154.458-.025.677-.639.771-1.096 1.551-1.372 2.339-.004.012-.007.024-.005.039.001.013.004.025.011.039.006.012.016.022.026.031.012.009.024.016.037.02l3.092.884c.035.011.071.015.106.01.035-.004.069-.016.098-.033 1.811-1.094 3.57-2.267 5.279-3.521 2.496-1.831 4.685-3.982 6.562-6.448.025-.034.04-.076.041-.121.002-.044-.011-.089-.035-.128l-.953-1.522c-.018-.028-.029-.061-.034-.095-.004-.034-.003-.07.006-.104.105-.444.334-.618.682-.521.205.06.395.22.572.484zm-53.513-32.154-1.707 2.592c-.042.064-.028.082.043.054l1.722-.687c.031-.012.057-.033.076-.06.018-.027.028-.059.028-.091l.011-1.752c.001-.215-.057-.233-.173-.056zm-24.563.484c-1.854-.241-3.626-.21-5.316.094-.839.15-1.886.416-3.142.797-1.018.308-2.038.677-3.058 1.105-.078.032-.147.08-.204.14-.058.061-.101.134-.129.212-1.207 3.484-1.955 7.037-2.244 10.657-.001.013.001.026.006.038s.013.022.023.03.021.014.034.016c.012.002.024.001.036-.003 2.925-.882 5.865-1.513 8.818-1.894.033-.004.065-.017.092-.037.026-.02.047-.047.06-.078 1.541-3.761 3.234-7.42 5.079-10.976.004-.01.007-.021.007-.033s-.003-.022-.008-.033c-.005-.01-.013-.019-.022-.025-.01-.004-.021-.009-.032-.01zm7.173 10.659c.365.012.8.003 1.306-.024.013 0 .027-.004.039-.011.012-.006.022-.016.03-.026.008-.011.014-.023.017-.037s.002-.028-.001-.041c-.582-2.435-1.523-4.678-2.825-6.729-.994-1.567-2.444-2.7-4.352-3.398-.028-.01-.06-.01-.087 0-.028.011-.051.031-.064.057-1.792 3.389-3.429 6.87-4.909 10.44-.005.014-.007.029-.005.044.001.015.007.029.016.042s.021.022.035.029c.014.006.029.009.043.008 3.561-.354 7.147-.471 10.757-.354zm25.23-.143c.016.111.059.123.128.036 2.688-3.403 5.789-6.438 9.305-9.107.115-.089.103-.145-.042-.168-2.636-.435-5.432-.571-8.39-.41-.052.003-.101.022-.142.054s-.071.075-.088.125c-1.006 2.993-1.263 6.15-.771 9.47zm-7.617 2.102 5.1 1.229c.035.008.07.008.101-.001.032-.01.058-.027.075-.052l1.199-1.697c.051-.072.086-.159.104-.254.017-.096.016-.197-.005-.299-.668-3.435-.485-6.914.549-10.438.004-.012.004-.024.001-.037-.002-.012-.008-.023-.017-.032-.008-.01-.018-.017-.029-.021-.012-.004-.023-.006-.034-.004-1.95.256-3.902.682-5.857 1.276-.027.008-.052.025-.069.048-.018.022-.029.05-.03.079-.219 3.378-.61 6.735-1.17 10.074-.005.028.001.057.018.081.012.024.036.042.064.048zm-7.295-1.23 5.934.953c.026.004.051-.003.072-.018s.035-.038.04-.063c.534-3.145.909-6.268 1.123-9.372 0-.012-.001-.024-.006-.035s-.012-.021-.022-.028c-.009-.008-.02-.013-.032-.015-.011-.002-.024-.001-.035.002-.737.245-1.453.54-2.149.885-.012.006-.139.058-.381.155-.296.12-.546.345-.752.677-1.321 2.143-2.604 4.391-3.85 6.744-.006.011-.009.023-.009.037 0 .012.003.025.009.036s.014.021.024.029.022.011.034.013zm-40.769 1.702c-.707 1.648-1.158 3.328-1.354 5.041-.013.121.028.146.125.076 2.832-2.018 5.852-3.571 9.06-4.661.044-.016.084-.043.112-.081.029-.037.047-.083.05-.13.241-3.511.892-6.95 1.952-10.317.051-.162.002-.203-.145-.123-1.997 1.071-3.81 2.378-5.438 3.921-1.883 1.787-3.337 3.878-4.362 6.274zm36.616-2.129c.887.095 1.775.183 2.665.263.031.003.063-.003.091-.019.028-.015.052-.038.067-.067l3.102-5.598c.11-.199.072-.235-.114-.109-2.404 1.599-4.663 3.381-6.777 5.349-.055.05-.046.082.026.099.138.033.277.053.418.059.329.013.503.022.522.023zm70.199-3.295c-1.278-.457-2.591-.547-3.938-.272-.013.003-.024.008-.035.016-.01.008-.019.018-.024.03-.006.011-.009.024-.009.037s.002.026.008.038c.655 1.431 1.244 2.889 1.768 4.373.946 2.681 1.508 5.443 1.684 8.285.305 4.912-.912 9.371-3.652 13.376-.019.027-.03.058-.033.091-.002.032.004.065.018.096 1.667 3.674 2.507 7.51 2.52 11.507.006 1.613-.146 3.06-.453 4.342-.416 1.737-1.093 3.408-2.033 5.016-.031.055-.049.116-.049.179-.002.062.015.124.047.179 1.022 1.828 1.832 3.672 2.426 5.533.032.102.082.111.15.026 3.889-4.876 6.675-10.321 8.357-16.339.136-.486.193-.99.175-1.514-.26-6.898-1.081-13.729-2.465-20.49-.995-4.854-2.399-9.609-4.212-14.267-.021-.056-.055-.106-.098-.148-.045-.042-.095-.074-.152-.094zm8.047 31.079c.953-5.068 1.114-10.161.482-15.279-.429-3.478-1.427-6.76-2.992-9.844-.493-.972-1.011-1.827-1.551-2.564-.613-.839-1.273-1.593-1.979-2.26-.04-.038-.074-.045-.105-.022-.015.012-.024.032-.027.057s.002.053.013.079c.665 1.719 1.25 3.465 1.752 5.24 2.284 8.055 3.695 16.249 4.229 24.583.031.477.089.481.178.01zm-102.91 7.162c.079.056.143.131.183.22.041.088.057.186.046.281-.387 3.737-.546 7.417-.477 11.041.045 2.271.219 4.564.522 6.879.006.052.025.1.055.143.029.041.069.075.114.098 2.132 1.06 4.351 1.852 6.655 2.378.261.061.517.041.765-.061 1.32-.528 2.65-1.193 3.991-1.993.065-.038.121-.092.162-.154.042-.064.069-.137.081-.213l.14-.997c.005-.03-.001-.061-.018-.088s-.042-.046-.072-.056c-.913-.286-1.771-.599-2.576-.938-2.923-1.226-5.112-3.256-6.566-6.089-.21-.409-.131-.72.236-.935.329-.193.577-.116.743.229.905 1.886 2.225 3.399 3.958 4.542 1.292.852 2.725 1.504 4.295 1.958.021.006.044.008.065.004.022-.003.043-.012.062-.023.019-.013.035-.029.047-.048.012-.02.021-.042.025-.064l.836-5.272c.044-.277.21-.424.498-.438.308-.015.502.101.583.349.041.124.039.323-.006.596-.272 1.653-.531 3.343-.778 5.067-.009.062.007.126.044.178.038.053.094.089.157.102l.964.199c.04.008.081.008.119 0 .039-.01.074-.026.104-.05 2.146-1.718 4.075-3.667 5.787-5.853.012-.016.02-.032.024-.05.005-.018.005-.036.002-.056-.003-.019-.01-.036-.021-.052-.011-.017-.024-.029-.04-.04l-3.969-2.626c-.211-.139-.281-.336-.21-.592.132-.474.427-.564.887-.272 1.336.851 2.669 1.7 4.001 2.551.036.023.08.031.122.023.042-.009.08-.034.104-.07 2.874-4.19 4.91-8.763 6.107-13.718.008-.033.008-.067-.001-.102-.009-.033-.026-.063-.049-.089-1.649-1.774-2.799-3.797-3.449-6.067-.003-.01-.044-.132-.124-.366-.155-.455-.024-.729.39-.823.39-.087.635.064.736.454.541 2.079 1.482 3.895 2.827 5.448.047.055.081.048.1-.024l2.649-9.943c.004-.014.004-.028.002-.042-.002-.015-.007-.029-.015-.041s-.018-.023-.029-.031c-.012-.009-.026-.014-.04-.017-.909-.182-1.813-.382-2.714-.598-.247-.06-.42-.156-.521-.289-.172-.232-.146-.467.079-.704.059-.062.131-.11.209-.136.079-.026.161-.032.239-.015l2.908.608c.042.01.086.002.122-.019.037-.021.062-.055.073-.094 1.324-5.055 2.477-10.181 3.459-15.377.005-.023.004-.046 0-.07-.005-.023-.014-.045-.027-.064s-.029-.035-.049-.048c-.019-.012-.04-.02-.062-.023l-6.254-.99c-.035-.006-.071 0-.104.018-.032.018-.058.045-.074.079-1.115 2.226-2.204 4.485-3.267 6.777-.123.264-.263.436-.422.514-.288.145-.534.042-.741-.311-.018-.029-.029-.062-.034-.097-.005-.034-.003-.07.006-.104.068-.266.218-.654.451-1.167.865-1.913 1.787-3.837 2.767-5.771.006-.012.009-.025.009-.038 0-.014-.003-.027-.009-.038-.006-.012-.015-.022-.026-.029-.011-.008-.023-.012-.037-.014-1.365-.131-2.7-.262-4.003-.392-.503-.051-.862.134-1.079.556-.029.058-.037.132-.024.21l.914 5.084c.057.315-.068.529-.375.642-.244.091-.44.047-.587-.129-.081-.096-.142-.262-.184-.499-.257-1.408-.512-2.817-.765-4.228-.033-.183-.118-.211-.254-.086-1.727 1.594-3.369 3.223-4.926 4.885-.049.052-.113.084-.182.092-.501.052-.74-.115-.717-.503.013-.205.125-.423.334-.655 1.654-1.838 3.421-3.56 5.301-5.165.219-.188.186-.29-.102-.304-4.271-.222-8.562-.079-12.873.429-.033.003-.064.016-.089.037-.026.021-.046.048-.058.079-1.154 2.974-2.22 6.013-3.198 9.118-.004.015-.006.031-.002.047.002.016.01.031.02.043s.023.021.038.028c.015.006.031.008.047.006 1.245-.138 2.496-.137 3.752.005.404.046.557.283.457.711-.062.264-.228.389-.497.374-1.189-.059-2.495-.032-3.914.079-.094.008-.183.044-.255.104-.073.061-.125.142-.15.233-.295 1.073-.592 2.15-.891 3.229-.006.018-.027.111-.065.281-.116.511-.406.668-.871.473-.276-.115-.374-.319-.294-.61l.893-3.346c.003-.012.003-.024 0-.035-.003-.012-.009-.022-.016-.032-.008-.009-.018-.015-.029-.02-.011-.004-.022-.004-.034-.003-1.482.254-2.876.569-4.183.946-.092.026-.17.086-.22.167s-.068.178-.052.271l.804 4.346c.013.076.003.149-.026.208-.236.464-.551.524-.944.182-.051-.046-.087-.108-.106-.182-.356-1.436-.641-2.888-.851-4.355-.002-.013-.007-.026-.014-.038s-.017-.021-.028-.028c-.011-.008-.023-.012-.036-.014-.014-.002-.026-.001-.04.003-2.971.955-5.792 2.33-8.466 4.125-.032.021-.055.053-.068.089-.012.036-.013.075-.001.112.623 1.933 1.439 3.946 2.45 6.039.042.085.058.181.047.276s-.048.185-.108.258c-.397.496-.755.417-1.074-.239-.883-1.803-1.643-3.617-2.281-5.441-.007-.019-.018-.035-.033-.048s-.034-.022-.053-.026c-.02-.004-.04-.003-.059.003s-.036.017-.049.032c-1.234 1.368-2.116 2.892-2.647 4.572-.789 2.492-.902 5.212-.34 8.159.688 3.618 2 6.981 3.939 10.095 1.323 2.123 2.838 4.075 4.547 5.854.041.04.068.033.083-.022 1.244-4.707 2.921-9.168 5.032-13.38.017-.033.039-.062.064-.085.026-.023.056-.04.088-.051.415-.139.675-.061.78.236.062.179.032.411-.089.701-.294.7-.6 1.396-.915 2.088-1.652 3.627-2.976 7.416-3.971 11.364-.012.046-.01.094.002.139.014.045.039.085.074.117 1.711 1.578 3.564 2.963 5.559 4.157.078.046.112.023.104-.069-.592-5.676-.558-11.364.102-17.065.033-.283.09-.487.173-.612.177-.273.429-.295.755-.069zm-2.886-30.293c-.085 2.311.016 4.684.301 7.121.003.025.012.05.025.072.013.021.031.041.052.055s.045.024.07.027c.025.004.051.002.075-.005 1.553-.453 3.153-.816 4.803-1.093.032-.006.063-.021.088-.043.024-.022.043-.05.053-.082.948-3.07 1.997-6.103 3.15-9.098.004-.011.006-.022.004-.033-.001-.011-.006-.022-.012-.031s-.016-.016-.026-.02-.021-.005-.031-.003c-2.756.366-5.554.987-8.394 1.863-.046.014-.087.044-.116.084-.028.04-.043.089-.042.139.012.41.011.759 0 1.047zm45.621-1.327c.393.236.542.184.45-.155-.012-.047-.033-.138-.064-.272-.065-.282-.208-.183-.428.295-.01.023-.012.049-.004.073s.024.046.046.059zm-10.354 15.246 1.493.42c.03.008.062.005.09-.011.027-.015.046-.041.056-.072 1.403-5.294 3.61-10.25 6.618-14.865.007-.011.011-.023.013-.036.001-.013 0-.025-.005-.038-.005-.012-.012-.022-.022-.031-.009-.008-.02-.014-.033-.018l-4.643-1.09c-.02-.004-.04-.004-.059-.001-.02.004-.038.011-.054.022-.017.011-.031.025-.042.042s-.018.035-.022.055c-.991 5.261-2.152 10.412-3.483 15.454-.009.035-.005.072.012.104s.047.055.081.065zm-45.84-9.43c-.078 2.454.21 4.907.863 7.359.003.012.009.024.018.034.008.01.019.018.031.022s.025.006.038.006c.013-.001.025-.006.036-.013 2.746-1.737 5.625-3.127 8.638-4.171.029-.011.054-.031.07-.056.016-.026.024-.056.021-.086-.282-2.772-.391-5.526-.329-8.261 0-.017-.004-.035-.011-.05-.008-.016-.019-.029-.033-.04s-.031-.017-.048-.02c-.018-.002-.035 0-.052.005-3.401 1.206-6.452 2.903-9.153 5.093-.026.021-.048.048-.063.079s-.024.065-.026.099zm48.684 10.28c3.399 1.049 6.543 2.54 9.436 4.471 1.056.707 2.635 1.953 4.737 3.736.012.009.023.016.037.02.013.003.027.005.04.003.014-.002.026-.007.038-.014s.022-.017.031-.028c1.129-1.627 1.964-3.396 2.506-5.309.009-.032.012-.067.007-.101-.006-.034-.019-.066-.038-.096-2.386-3.671-4.416-7.353-6.087-11.046-.806-1.782-1.571-3.809-2.295-6.081-.011-.035-.029-.066-.053-.092-.024-.025-.053-.043-.083-.052l-1.497-.491c-.037-.012-.077-.011-.114.003s-.069.04-.092.074c-3.007 4.563-5.229 9.509-6.664 14.838-.009.034-.005.07.012.101s.046.054.079.064zm13.639-11.601c-1.11-1.023-2.361-1.82-3.758-2.389-.056-.023-.073-.006-.054.053 1.141 3.379 2.564 6.631 4.275 9.754.971 1.772 1.967 3.484 2.991 5.137.099.159.164.146.195-.04.396-2.399.296-4.714-.3-6.945-.581-2.191-1.699-4.047-3.349-5.57zm-60.591 46.404c.814.588 1.668 1.107 2.562 1.56.011.005.023.008.035.007.012 0 .024-.004.035-.01.01-.006.019-.014.025-.024.006-.011.009-.022.01-.034.136-2.186.441-4.39.915-6.612.013-.065.011-.132-.008-.195s-.052-.121-.098-.169c-2.442-2.465-4.447-5.147-6.014-8.049-1.644-3.042-2.722-6.13-3.236-9.264-.444-2.704-.363-5.275.243-7.717.315-1.272.759-2.395 1.328-3.365.606-1.034 1.368-1.984 2.283-2.851.027-.026.047-.059.057-.096s.009-.076 0-.112c-.643-2.293-1.004-4.652-1.083-7.079-.004-.106-.044-.122-.119-.045-3.948 3.969-6.224 8.779-6.826 14.429-.514 4.834-.189 9.831.977 14.993.784 3.473 2.157 6.685 4.119 9.639 1.297 1.956 2.897 3.622 4.795 4.994zm40.971-23.65c1.144.854 2.348 1.454 3.612 1.803.012.004.024.004.036.001.012-.002.023-.008.032-.017.009-.007.017-.018.021-.029.005-.011.006-.023.005-.036-.35-4.028-.101-8.018.746-11.966.006-.031.001-.062-.014-.088s-.039-.045-.067-.054l-1.529-.462c-.012-.003-.024-.004-.036-.002s-.025.007-.035.013c-.011.006-.021.015-.028.026s-.014.023-.018.036l-2.803 10.55c-.011.041-.009.085.004.127.014.038.04.073.074.098zm5.102 2.203c1.416.293 2.781.485 4.099.572 1.255.083 2.414.019 3.477-.192 1.08-.215 2.142-.641 3.188-1.277 1.27-.773 2.442-1.782 3.519-3.026.021-.024.038-.054.048-.085.011-.031.014-.066.012-.099-.004-.033-.013-.065-.029-.095s-.036-.055-.063-.076c-.872-.696-1.785-1.428-2.739-2.193-3.212-2.579-6.837-4.481-10.876-5.707-.014-.005-.029-.006-.043-.004-.015.001-.028.006-.041.014-.012.007-.022.018-.031.029-.008.012-.014.025-.017.04-.873 3.958-1.097 7.926-.674 11.905.005.047.025.091.056.126s.069.059.114.068zm16.19-4.291c.824.603 1.701 1.134 2.63 1.592.027.013.056.018.085.013.029-.006.057-.02.077-.041l2.343-2.479c.022-.024.036-.056.037-.09.003-.033-.007-.064-.026-.092l-2.62-3.729c-.104-.147-.184-.136-.239.035-.521 1.582-1.293 3.126-2.314 4.632-.017.024-.023.055-.018.085.004.03.021.056.045.074zm28.147 4.865c4.612 1.997 8.312 5.078 11.101 9.244.008.013.019.022.032.029s.027.01.042.01.028-.005.04-.012c.013-.009.023-.02.03-.031 1.401-2.543 2.097-5.259 2.089-8.147-.011-3.651-.722-7.151-2.135-10.501-.007-.016-.018-.028-.03-.039-.013-.01-.029-.016-.044-.019-.017-.002-.033 0-.048.006-.016.007-.028.017-.038.029-1.693 2.11-3.606 3.991-5.739 5.641-1.664 1.288-3.433 2.502-5.31 3.642-.092.056-.088.106.01.148zm-19.483-7.878-1.805 1.997c-.028.031-.043.071-.046.112-.001.041.012.083.037.116l2.029 2.688c.153.202.223.178.206-.072l-.298-4.8c-.008-.112-.049-.126-.123-.041zm-4.612 5.123c1.319.41 2.638.668 3.954.773.071.006.086-.021.043-.079l-2.059-2.764c-.007-.008-.015-.015-.024-.021-.011-.005-.021-.009-.031-.009-.011-.001-.022.001-.031.005-.011.005-.021.011-.027.019l-1.847 1.996c-.006.006-.009.015-.01.021-.003.009-.003.017 0 .025.002.007.006.015.011.02.005.008.013.012.021.014zm-15.751 3.999c-1.103-.054-2.546-.239-4.333-.557-.012-.002-.025-.002-.038.002-.011.004-.023.011-.032.019-.01.01-.017.021-.021.032-.005.012-.006.025-.005.037.509 4.062 2.293 7.518 5.354 10.366.026.023.059.036.093.037.035 0 .068-.013.093-.035 3-2.739 5.785-5.649 8.359-8.732 1.32-1.583 2.679-3.133 4.077-4.651.007-.008.013-.019.017-.03.002-.012.003-.023.001-.035-.002-.013-.007-.022-.016-.032-.007-.01-.016-.017-.026-.022-.856-.411-1.683-.923-2.478-1.534-.035-.027-.079-.039-.122-.034s-.084.026-.112.061c-.703.822-1.432 1.555-2.189 2.195-2.48 2.098-5.355 3.069-8.622 2.913zm1.573 21.088c-1.528-.551-3.035-1.157-4.521-1.817-.03-.014-.062-.02-.097-.016-.033.002-.065.014-.094.033-.798.524-1.549 1.114-2.251 1.767-.009.008-.016.019-.021.029-.004.012-.006.025-.004.037.001.013.005.024.012.035s.016.019.027.024c1.812 1.061 3.246 2.532 4.302 4.415.007.013.016.023.027.031.011.009.024.015.038.019.013.003.028.003.042 0 .013-.003.027-.009.038-.017.773-.564 1.511-1.11 2.216-1.641.36-.27.651-.245.873.074.209.302.176.555-.1.76l-2.524 1.883c-.026.021-.046.048-.057.077-.011.03-.011.062-.002.092.715 2.244 1.027 4.515.938 6.813-.072 1.882-.109 2.825-.109 2.829.065 1.444.347 2.83.845 4.158.053.141.119.146.195.018 1.184-1.995 2.301-3.986 3.35-5.976.124-.235.264-.388.422-.457.287-.125.519-.04.693.254.047.079.072.169.075.262.003.092-.018.183-.061.265-1.294 2.49-2.593 4.812-3.896 6.965-.03.051-.046.109-.045.17 0 .061.018.119.049.171 1.512 2.393 3.514 4.19 6.007 5.391.119.057.245.082.379.072 7.102-.516 14.038-1.88 20.81-4.097.044-.014.082-.04.111-.074.03-.034.049-.077.057-.12.129-.789.191-1.605.185-2.45-.007-.597.261-.825.801-.684.105.028.197.089.262.173s.099.186.096.29l-.061 2.206c0 .012.003.023.007.034.006.011.014.021.022.027.01.007.019.012.03.013.012.003.022.002.033-.002 5.261-1.865 10.165-4.425 14.715-7.681 3.048-2.18 5.898-4.793 8.556-7.841.149-.173.239-.372.27-.601.399-2.971.252-6.087-.441-9.346-.026-.123-.081-.14-.166-.049-3.58 3.718-7.874 6.338-12.885 7.863-.238.07-.444.018-.619-.161-.314-.32-.306-.59.027-.806.104-.066.311-.149.62-.245 4.818-1.508 8.991-4.18 12.519-8.017.039-.042.067-.096.08-.152.015-.058.012-.117-.006-.173-.574-1.924-1.333-3.741-2.274-5.451-.007-.015-.018-.026-.031-.036-.013-.008-.028-.013-.045-.014-.015-.002-.03.001-.045.007-.015.007-.027.017-.036.028-2.206 2.726-4.812 4.828-7.821 6.307-.865.427-1.744.82-2.639 1.182-.012.005-.022.012-.032.022-.009.01-.017.021-.021.033-.005.013-.006.027-.005.04s.006.026.012.038c.586.994.872 2.066.86 3.219-.001.227-.059.4-.171.521-.178.19-.386.221-.624.09-.141-.079-.236-.207-.288-.383-.048-.164-.074-.331-.08-.502-.015-.386-.034-.63-.062-.733-.152-.632-.396-1.228-.731-1.787-.016-.026-.041-.047-.07-.059-.029-.011-.062-.012-.093-.002-7.03 2.201-14.151 2.544-21.365 1.029-.413-.088-.647-.145-.705-.169-.332-.148-.401-.433-.205-.854.045-.095.121-.173.215-.221.092-.046.198-.059.299-.035 7.012 1.586 14.006 1.333 20.984-.758.021-.007.041-.019.058-.034.015-.017.026-.035.033-.057.006-.022.009-.045.004-.066-.004-.022-.014-.042-.028-.06-1.132-1.396-2.357-2.72-3.678-3.974-1.423-1.353-2.142-2.036-2.157-2.052-.709-.7-1.412-1.403-2.113-2.108-.009-.01-.02-.017-.032-.021-.013-.005-.026-.006-.039-.005-.014.003-.025.008-.037.015s-.022.017-.03.028c-1.383 2.074-3.106 3.828-5.166 5.263-.245.172-.473.152-.685-.054-.366-.358-.328-.684.11-.977.106-.072.164-.111.175-.118 1.889-1.375 3.466-3.029 4.736-4.964.026-.041.04-.09.036-.14-.005-.05-.024-.097-.059-.135l-2.384-2.637c-.022-.023-.051-.039-.082-.046-.032-.007-.064-.004-.094.01l-3.506 1.568c-.065.026-.138.03-.203.006-.485-.186-.62-.453-.403-.804.106-.171.304-.323.596-.458.845-.385 1.74-.789 2.687-1.21.013-.006.023-.015.031-.024.01-.011.016-.024.019-.037.003-.014.003-.027-.001-.041s-.01-.025-.019-.036l-4.257-4.979c-.076-.088-.117-.075-.124.039-.124 2.072-.495 4.105-1.115 6.098-.022.07-.066.128-.125.162-.426.239-.722.132-.889-.323-.024-.063-.027-.138-.01-.211.552-2.233.927-4.527 1.12-6.884.002-.016 0-.032-.004-.047-.006-.015-.015-.028-.023-.04-.011-.012-.023-.022-.038-.028-.014-.007-.029-.012-.044-.012-1.951-.104-3.868-.457-5.755-1.06-.03-.01-.062-.011-.095-.003-.031.009-.06.026-.083.051-.882.949-2.431 2.724-4.648 5.325-2.53 2.966-5.216 5.754-8.058 8.363-.016.016-.028.033-.036.054-.008.02-.012.042-.011.063 0 .021.006.042.017.062.01.019.024.035.042.049l1.948 1.493c.06.045.102.105.121.171.14.455-.03.722-.509.801-.072.012-.144-.005-.2-.046l-2.313-1.677c-.026-.018-.057-.028-.087-.028s-.059.011-.082.028c-2.035 1.737-4.185 3.368-6.449 4.892-.113.075-.105.143.021.201l2.244 1.029c.03.014.063.02.095.018.032-.003.062-.013.086-.031 1.077-.747 2.18-1.448 3.311-2.105.239-.14.452-.184.64-.134.346.091.453.344.32.763-.021.064-.066.121-.128.161l-2.789 1.817c-.129.085-.124.155.018.215l3.848 1.603c.076.032.142.085.19.152.048.068.076.148.081.232.018.298-.067.499-.254.605-.128.079-.309.073-.541-.01zm-17.753-10.132c3.018 1.818 6.055 3.504 9.111 5.053.028.015.059.021.09.02.031-.003.061-.012.088-.029 2.403-1.548 4.684-3.241 6.843-5.08.021-.018.039-.04.05-.065.012-.024.018-.052.02-.08 0-.027-.004-.055-.015-.08-.011-.026-.026-.049-.046-.067-3.273-3.136-5.144-6.933-5.609-11.393-.003-.034-.016-.065-.037-.091-.022-.025-.05-.044-.082-.052-1.552-.417-2.942-1.038-4.17-1.861-.017-.011-.036-.018-.056-.021-.021-.002-.041 0-.06.009-.019.007-.036.019-.05.034-.014.016-.023.034-.029.055-1.22 4.903-3.246 9.402-6.079 13.498-.009.012-.015.025-.018.04-.003.014-.003.028 0 .042.002.015.008.028.017.04.008.012.018.021.032.028zm49.514-12.807c-.989-.143-1.972-.238-2.947-.288-.748-.036-1.732-.024-2.952.037-1.622.081-3.243.164-4.863.248-.073.003-.085.034-.038.09l4.695 5.515c.02.023.047.039.077.046.03.006.062.002.09-.011l4.849-2.327c.062-.029.116-.072.161-.124.046-.052.078-.112.099-.179l.891-2.912c.002-.009.004-.021.002-.03-.001-.011-.004-.021-.012-.029-.004-.01-.013-.017-.021-.022-.011-.008-.021-.011-.031-.014zm3.472.785-2.091-.532c-.028-.008-.059-.003-.085.014-.026.015-.046.041-.057.072l-.593 1.852c-.063.192-.003.241.178.145l2.655-1.428c.101-.055.099-.096-.007-.123zm-2.776 11.996c.892.851 1.779 1.705 2.663 2.564 1.026.995 2.003 2.098 2.927 3.309.033.043.08.074.131.088.053.015.109.012.159-.007 1.739-.695 3.342-1.505 4.81-2.427 2.119-1.333 3.973-3.061 5.56-5.182.015-.021.024-.048.025-.075.001-.025-.007-.053-.021-.074-2.857-4.462-6.763-7.674-11.717-9.64-.031-.013-.065-.018-.101-.015-.034.002-.069.013-.102.03l-4.789 2.586c-.047.026-.089.061-.123.101-.033.04-.058.085-.072.135-.566 1.891-1.315 3.707-2.249 5.449-.025.048-.035.102-.028.156.009.055.032.104.069.144.979 1.018 1.931 1.97 2.858 2.858zm28.844-8.742c-1.871 5.223-4.558 9.944-8.061 14.163-.021.026-.037.057-.044.09-.008.033-.007.067.001.102.668 2.914.927 5.866.773 8.858-.008.143.031.157.114.043 2.041-2.766 3.703-5.75 4.989-8.954 1.294-3.227 2.052-6.711 2.272-10.455.074-1.239.111-2.513.111-3.818.002-.31-.051-.32-.155-.029zm-34.611 2.644 1.874 2.089c.009.009.019.017.031.02.012.005.023.006.037.004.013-.002.024-.007.035-.015.01-.007.019-.018.024-.029.644-1.25 1.19-2.519 1.636-3.803.044-.128.006-.163-.117-.105l-3.494 1.707c-.012.004-.022.014-.03.023-.008.011-.013.023-.016.035-.003.015-.002.027.002.04.004.012.01.024.018.034zm-50.471 12.746 9.795 1.342c.06.01.118.001.164-.023l4.032-2.085c.053-.027.052-.055-.002-.083-2.964-1.498-5.849-3.093-8.655-4.781-.025-.016-.055-.021-.084-.016-.03.006-.057.022-.076.046-1.591 2.001-3.333 3.812-5.221 5.437-.108.091-.092.145.047.163zm-24.409 4.211c2.4.919 4.928 1.34 7.582 1.262.017 0 .034-.004.049-.012.015-.007.028-.019.039-.032s.018-.03.021-.047c.004-.018.005-.035.001-.054l-.661-3.065c-.01-.045-.03-.089-.057-.126s-.062-.067-.103-.09c-2.205-1.191-4.232-2.624-6.081-4.299-.011-.01-.025-.017-.039-.019-.015-.004-.03-.003-.043.002-.014.005-.027.013-.037.023-.01.012-.017.025-.02.039-.423 2.01-.673 4.097-.751 6.263-.001.032.007.065.025.093.019.027.045.049.075.062zm36.409-2.398c1.153.282 2.258.647 3.317 1.095.061.025.127.034.193.024s.128-.036.181-.079l2.16-1.756c.009-.008.016-.017.02-.027.005-.011.006-.021.004-.033-.001-.011-.006-.021-.012-.031-.007-.009-.016-.017-.026-.021l-2.422-1.098c-.03-.013-.063-.019-.096-.018-.034.002-.066.011-.097.027l-3.236 1.773c-.118.066-.114.114.014.144zm-4.481.394-8.778-1.192c-.131-.02-.261.011-.366.083l-1.742 1.204c-.028.02-.053.046-.071.075-.018.031-.029.064-.032.1l-.195 1.761c-.004.026-.001.055.008.079.008.026.022.05.041.07.018.02.041.036.066.047s.052.017.08.016c3.854-.102 7.521-.808 11.005-2.117.16-.061.155-.103-.016-.126zm-11.501 13.976c1.025.242 2.006.386 2.944.432 3.358.164 6.595-.372 9.712-1.609.031-.013.057-.032.076-.06.02-.027.03-.059.032-.092.195-2.85 1.142-5.41 2.84-7.682.843-1.128 1.797-2.204 2.86-3.228.009-.008.015-.018.018-.029s.004-.023.001-.034c-.001-.012-.007-.022-.015-.032-.007-.009-.018-.016-.028-.02-1.478-.557-2.943-.949-4.396-1.179-.071-.011-.143-.002-.208.027-4.247 1.873-8.754 2.863-13.52 2.971-.034 0-.066.014-.09.036-.025.023-.041.056-.044.088-.323 3.447-.433 6.856-.329 10.229.001.042.016.084.043.117.026.032.063.056.104.065zm-11.318-10.808c1.221-.105 2.473-.342 3.757-.71.148-.042.148-.085 0-.128-1.456-.426-2.91-.972-4.361-1.641-.113-.051-.154-.02-.124.098l.585 2.286c.007.029.025.056.052.072.027.019.059.026.091.023zm8.673-1.099c.425.057.825.092 1.201.105.026.001.131.018.315.048.201.032.302-.06.302-.277 0-.173.006-.309.02-.408.02-.153.015-.305-.015-.454-.003-.014-.008-.024-.016-.033-.008-.01-.018-.018-.03-.022-.012-.006-.024-.009-.038-.008-.013 0-.025.004-.038.01l-1.725.876c-.165.084-.157.138.024.163zm24.738 1.718c-.589-.52-1.313-1.016-2.173-1.489-.056-.032-.12-.045-.184-.037-.063.009-.124.037-.171.08-1.934 1.796-3.429 3.779-4.486 5.949-.594 1.217-.958 2.517-1.092 3.897-.002.016 0 .03.007.045.006.014.016.026.028.035.013.01.027.016.042.017s.03-.001.044-.007c3.475-1.52 6.782-3.388 9.922-5.604.024-.018.043-.042.052-.072.008-.028.006-.06-.006-.087-.458-1.059-1.119-1.968-1.983-2.727zm-29.563 6.397c1.573 1.43 3.579 2.56 6.018 3.387.012.004.024.005.036.003.013-.002.023-.008.034-.015.009-.008.018-.018.022-.028.005-.012.008-.023.008-.037-.03-3.334.076-6.663.319-9.988.001-.027-.008-.056-.026-.077-.019-.021-.045-.035-.074-.039l-3.708-.422c-.152-.018-.286-.006-.401.034-1.802.619-3.697 1.066-5.684 1.343-.017.002-.033.007-.047.017-.015.009-.027.021-.036.036s-.015.031-.017.049c-.002.017-.001.034.004.052.732 2.303 1.916 4.199 3.552 5.685zm-6.451 8.765c1.866 1.671 3.938 3.022 6.215 4.055 2.662 1.204 5.45 2.135 8.365 2.789.078.018.104-.012.078-.087-1.188-3.395-1.844-6.911-1.967-10.545-.002-.084-.031-.166-.081-.233-.051-.067-.121-.116-.201-.142-2.02-.625-3.938-1.586-5.751-2.886-1.442-1.032-2.568-2.252-3.375-3.658-.576-1.006-1.132-2.24-1.667-3.705-.011-.029-.03-.055-.057-.072-.026-.017-.058-.025-.089-.023-2.734.117-5.398-.255-7.995-1.119-.012-.005-.024-.006-.036-.004s-.024.006-.035.014c-.01.007-.019.018-.024.028-.006.011-.009.023-.009.036.009 1.732.199 3.444.572 5.134.909 4.141 2.928 7.615 6.057 10.418zm33.779 5.764c.921.921 1.931 1.791 3.028 2.609.024.019.054.026.084.022.03-.003.057-.019.077-.041 1.29-1.58 2.478-3.217 3.565-4.912.019-.028.03-.062.033-.096s-.003-.069-.018-.102c-.544-1.206-.915-2.451-1.111-3.732-.103-.66-.149-1.666-.139-3.017.008-1.011.012-2.021.014-3.031.004-1.532-.229-3.053-.698-4.561-.006-.019-.017-.036-.03-.05-.014-.014-.03-.024-.049-.031-.018-.006-.038-.009-.057-.006s-.037.011-.053.021c-3.259 2.296-6.74 4.227-10.442 5.796-.03.014-.055.034-.071.063-.016.028-.023.06-.02.093.074.678.188 1.337.345 1.979.148.602.367 1.231.659 1.89 1.181 2.67 2.809 5.038 4.883 7.106zm6.926 5.024c4.243 2.03 8.723 3.189 13.438 3.479 9.438.579 18.212-1.521 26.321-6.298 1.924-1.134 3.855-2.589 5.793-4.364 3.716-3.402 6.235-7.555 7.557-12.456.049-.183.009-.205-.119-.068-2.219 2.37-4.652 4.507-7.301 6.412-4.722 3.392-9.808 6.08-15.258 8.066-.01.002-.121.034-.336.093-.311.087-.511.284-.601.59-.071.248-.109.375-.112.381-.715 1.773-1.91 3.121-3.586 4.044-1.365.752-2.873 1.276-4.521 1.574-2.175.395-4.301.464-6.379.206-2.264-.28-4.455-.843-6.573-1.686-.008-.005-.178-.09-.509-.254-.309-.153-.636-.209-.98-.169-.312.036-.472.056-.478.056-2.054.108-4.159.178-6.317.208-.279.003-.292.066-.039.186zm-24.518-3.635c6.552 1.196 13.103 1.924 19.654 2.184.203.008.223-.049.058-.172-2.107-1.572-3.92-3.403-5.44-5.493-.973-1.339-1.735-2.576-2.285-3.714-.721-1.49-1.196-3.059-1.426-4.703-.003-.022-.011-.045-.024-.065-.013-.021-.03-.037-.05-.049-.021-.012-.042-.02-.066-.022-.023-.001-.047.002-.07.01-4.133 1.55-8.329 1.938-12.586 1.163-.014-.002-.027-.002-.039.001-.013.004-.025.01-.035.02-.01.008-.018.019-.023.03s-.007.026-.007.039c.147 3.654.874 7.201 2.179 10.639.013.033.035.064.063.088.028.021.062.037.097.044zm21.767 2.065c.124.047.239.088.344.122.112.037.23.056.358.057 2.242.021 4.636-.023 7.184-.132.162-.006.175-.055.04-.144-1.877-1.226-3.405-2.71-4.583-4.451-.006-.01-.016-.019-.026-.024-.011-.006-.022-.008-.035-.008s-.024.002-.035.008-.021.015-.027.024c-1.034 1.531-2.118 3.007-3.252 4.428-.008.01-.013.021-.015.032s-.002.023.001.035.009.022.017.032c.007.009.017.017.029.021zm12.905.957c2.309.781 4.679 1.194 7.112 1.242 2.148.041 4.314-.322 6.5-1.092 2.038-.716 3.516-2.011 4.434-3.883.033-.066.015-.089-.056-.066-5.882 1.851-11.874 3.075-17.975 3.672-.201.018-.206.061-.015.127zm-31.262 1.987c.636.558 1.334 1.021 2.098 1.389 3.14 1.515 6.249 1.462 9.328-.153 1.411-.74 2.703-1.682 3.875-2.825.055-.052.045-.08-.03-.085-6.037-.296-12.054-.968-18.053-2.014-.062-.012-.079.011-.05.067.714 1.383 1.658 2.59 2.832 3.621z" fill="#a7c8e9"/><path d="m470.179 528.716c-7.586-3.212-9.966-10.764-3.838-20.34 5.977-9.353 12.21-8.493 15.125-7.718 4.041 1.079 6.253 3.278 6.818 6.847l1.078-2.874 3.43 1.452-8.317 27.881-4.832-2.046 1.66-4.005c-3.152 2.399-7.258 2.439-11.124.803zm2.497-7.669c7.78 3.294 10.385-2.032 11.377-4.426 3.076-7.423-.034-10.061-3.271-11.431-2.706-1.146-7.681-.381-11.392 5.97-2.381 4.101-2.416 7.474 3.286 9.887z" fill="#ff6c00"/></svg>