<svg enable-background="new 0 0 128 128" height="128" viewBox="0 0 128 128" width="128" xmlns="http://www.w3.org/2000/svg"><path d="m77.833 79.413 3.597 3.725c-1.789.919-3.927 2.605-5.127 3.789-4.111 4.145-4.301 9.318 1.932 15.771 5.865 5.206 14.362 2.655 16.688-4.035l8.293.442c-.842 3.199-3.248 6.165-6.028 8.571-9.452 8.146-15.916 6.91-23.277-.709-8.281-8.573-9.005-15.472-1.933-22.789 2.012-2.073 4.662-4.18 5.855-4.765z" fill="#ff00a8"/><path d="m97.952 69.705c-7.455.756-10.953-1.071-12.686-4.728-1.33-2.261-3.384-20.306-6.846-39.271l6.986-.708 1.683 16.964c.393 3.951 2.269-1.56 7.881-2.289 7.693-.993 14.437 4.87 15.188 12.456.902 9.063-5.274 16.873-12.206 17.576zm.258-8.541c4.139-.738 7.271-4.195 6.842-8.516-.518-5.217-3.521-8.955-8.524-8.448-4.951.502-7.541 4.648-6.987 10.232.531 5.376 1.893 7.419 8.669 6.732z" fill="#00aeef"/><path d="m83.271 10.345c.03.063.078.117.137.157.057.04.124.062.191.07 2.823.283 5.399.964 7.729 2.043.268.124.546.179.836.166 6.764-.319 12.554 1.938 17.369 6.77 1.79 1.797 3.303 3.646 4.535 5.548 1.898 2.929 3.511 6.035 4.832 9.321.075.194.218.356.399.458.868.486 1.651 1.112 2.348 1.879.851.938 1.592 1.956 2.223 3.056 1.688 2.94 2.835 6.162 3.44 9.667.449 2.608.681 5.091.689 7.445.021 4.785-.571 9.438-1.773 13.958-.148.56-.202 1.088-.162 1.588.053.644.053 2.473.002 5.489-.084 4.999-1.162 9.763-3.236 14.286-1.389 3.031-3.041 5.759-4.957 8.184-.207.264-.376.483-.504.663-.146.204-.243.459-.298.764-.824 4.62-2.757 8.71-5.797 12.265-1.769 2.067-3.762 3.882-5.981 5.444-4.381 3.081-9.138 5.283-14.271 6.606-1.381.356-2.79.662-4.233.917-6.283 1.117-12.471.883-18.565-.7-2.701-.702-5.379-1.817-8.034-3.348-.354-.204-.659-.315-.918-.333-.228-.017-.451 0-.675.046-.196.042-.384.152-.561.334-1.212 1.234-2.497 2.275-3.854 3.123-1.03.644-2.138 1.119-3.321 1.431-1.151.305-2.333.414-3.546.333-2.715-.183-5.075-1.208-7.08-3.075-1.244-1.16-2.298-2.638-3.163-4.436-.015-.029-.036-.056-.062-.077-.025-.02-.057-.034-.09-.041-3.677-.729-7.191-1.934-10.544-3.615-2.146-1.075-4.081-2.431-5.806-4.062-1.088-1.032-2.031-2.134-2.827-3.305-1.58-2.324-2.655-4.902-3.224-7.73-.37-1.834-.546-3.686-.527-5.556.001-.032-.007-.064-.024-.092-.017-.026-.042-.048-.07-.062-3.116-1.455-5.703-3.575-7.761-6.358-1.547-2.091-2.757-4.366-3.63-6.826-1.479-4.172-2.306-8.653-2.475-13.443-.094-2.675.021-5.065.349-7.176.916-5.914 3.507-10.782 7.775-14.606.197-.175.307-.395.332-.659.435-4.464 2.026-8.292 4.776-11.484 2.262-2.623 4.997-4.675 8.209-6.157.166-.076.295-.214.361-.385 1.494-3.909 3.678-7.37 6.555-10.381 1.039-1.09 2.125-2.048 3.258-2.873 4.244-3.095 9.025-4.657 14.342-4.687.238 0 .438-.089.602-.266 2.806-3.009 5.863-5.479 9.176-7.405 3.381-1.969 7.026-3.036 10.938-3.201 3.422-.145 6.539.628 9.355 2.319 1.184.712 2.312 1.614 3.388 2.704 1.555 1.58 2.83 3.347 3.823 5.305zm-22.812 13.114c2.785-3.642 6.027-6.805 9.723-9.49 2.197-1.594 4.682-2.684 7.45-3.269.661-.139 1.359-.223 2.095-.252.717-.029 1.422-.032 2.117-.011.085.004.107-.033.067-.108-1.288-2.365-2.953-4.351-4.994-5.954-1.18-.929-2.429-1.648-3.748-2.16-2.202-.852-4.521-1.198-6.956-1.038-2.406.161-4.721.711-6.944 1.653-2.744 1.163-5.268 2.701-7.566 4.614-1.274 1.06-2.5 2.168-3.677 3.327-.074.071-.061.11.041.118 4.688.3 8.055 2.39 10.102 6.267.5.945.912 2.021 1.237 3.228.298 1.104.513 2.241.646 3.412.011.092.045.103.106.033.104-.123.205-.246.301-.37zm8.748.034c1.218-1.608 2.878-3.123 4.983-4.543 2.738-1.849 5.929-3.308 9.565-4.377.014-.003.025-.012.036-.02.011-.009.02-.02.025-.032.006-.012.01-.025.011-.039 0-.014-.002-.026-.007-.039l-1.118-2.621c-.021-.047-.054-.088-.099-.118-.044-.03-.095-.048-.149-.054-3.797-.336-7.312.521-10.54 2.573-1.343.85-2.611 1.799-3.808 2.85-2.901 2.547-5.483 5.361-7.743 8.444-.069.094-.105.2-.104.306l.03 2.979c0 .014.003.027.009.039.006.011.015.022.025.03.01.007.021.013.036.015.013.002.025.002.039-.002 1.932-.536 3.988-.945 6.17-1.229.068-.01.135-.035.189-.077.058-.042.102-.099.13-.162.647-1.423 1.419-2.731 2.32-3.923zm20.096-10.461c-1.674-.61-3.399-1.018-5.18-1.221-.011-.002-.022 0-.033.005s-.019.012-.024.021c-.008.009-.012.021-.013.032-.001.012.001.023.006.034l.923 2.156c.013.027.032.05.061.062.025.013.057.017.087.01l4.166-.99c.126-.027.13-.064.007-.109zm-52.924 14.171c2.398 1.016 4.213 2.668 5.445 4.958 1.062 1.975 1.842 4.059 2.337 6.253.009.036.023.069.042.098.02.028.044.051.073.067.244.137.458.136.641-.002.573-.438 1.559-1.251 2.958-2.446 1.307-1.115 2.302-1.918 2.985-2.409 1.313-.941 2.688-1.801 4.125-2.575.064-.034.117-.084.157-.148 1.195-1.901 2.423-3.707 3.682-5.415.104-.143.158-.316.149-.493-.112-2.287-.576-4.409-1.391-6.367-.621-1.491-1.403-2.706-2.346-3.646-1.497-1.491-3.355-2.424-5.577-2.796-.794-.133-1.636-.215-2.526-.245-.095-.003-.188.014-.276.052-.087.038-.166.094-.229.167-3.993 4.518-7.43 9.444-10.308 14.777-.008.015-.014.031-.015.049-.001.017 0 .034.007.049.005.016.014.031.025.044.012.011.027.021.042.028zm-3.54-.699c.289.015.998.097 2.127.248.032.003.063-.002.092-.017.028-.016.053-.038.067-.066 2.827-5.167 6.14-9.993 9.937-14.477.049-.057.035-.083-.038-.08-4.643.213-8.802 1.635-12.478 4.266-1.127.807-2.218 1.761-3.271 2.862-2.519 2.632-4.513 5.657-5.983 9.078-.036.083-.012.107.074.076 1.811-.679 3.639-1.196 5.482-1.552 1.475-.285 2.805-.398 3.991-.338zm70.124-2.981c2.688 1.22 4.978 2.971 6.865 5.254 1.344 1.627 2.483 3.378 3.423 5.25.021.041.054.073.093.094.041.02.087.025.132.018 1.265-.232 2.562-.231 3.895.005.113.021.147-.023.103-.132-1.512-3.551-3.364-6.851-5.56-9.898-.602-.833-1.204-1.589-1.812-2.27-.646-.723-1.319-1.417-2.024-2.082-4.028-3.804-8.819-5.754-14.373-5.848-.105-.002-.114.029-.029.094 2.712 2.045 4.402 4.741 5.073 8.088.008.041.027.077.057.105.03.027.065.048.105.055 1.411.26 2.762.683 4.052 1.267zm-8.463-7.171c-.947-.974-1.953-1.733-3.019-2.278-.062-.032-.133-.043-.203-.033-1.948.286-3.872.69-5.771 1.215-.014.003-.025.011-.038.021-.011.009-.02.02-.026.032-.008.014-.013.026-.014.041s0 .029.005.043c.794 2.539 1.374 5.131 1.743 7.779.004.024.015.046.026.066.012.02.03.036.05.049.021.013.042.021.065.023.022.002.047 0 .068-.008 3.282-1.118 6.624-1.544 10.023-1.279.014.001.026 0 .039-.006.012-.005.021-.013.03-.022.01-.01.016-.022.019-.035.003-.012.003-.026-.001-.039-.508-2.187-1.508-4.043-2.996-5.569zm-23.588 11.192c2.26.032 4.505.241 6.732.626.068.011.139-.003.194-.042 2.559-1.734 5.261-3.192 8.109-4.373.028-.012.054-.034.069-.062.016-.028.022-.061.02-.093-.324-2.652-.911-5.275-1.761-7.868-.007-.019-.017-.034-.027-.049-.013-.014-.026-.024-.044-.033s-.034-.014-.053-.014c-.02 0-.038.003-.055.009-.454.181-.909.346-1.364.496-3.276 1.071-6.299 2.638-9.064 4.698-2.354 1.75-4.188 3.946-5.509 6.588-.006.011-.009.023-.008.035 0 .012.004.024.01.034s.016.019.023.023c.012.007.022.009.034.009.953-.002 1.851.003 2.694.016zm41.548 32.014c.158.241.307.484.443.729.011.018.023.032.041.042.018.011.037.016.056.017.021 0 .04-.004.058-.014.019-.01.033-.023.043-.041 2.706-4.329 3.677-9.044 2.907-14.146-.542-3.603-1.636-7.092-3.276-10.468-.019-.036-.049-.064-.086-.081-.036-.016-.077-.017-.115-.005-.738.247-1.479.527-2.222.841-.012.005-.146.074-.403.208-.405.212-.711.119-.92-.279-.156-.303-.084-.531.217-.687.895-.463 1.847-.851 2.856-1.163.015-.004.025-.011.035-.021.01-.011.019-.021.022-.033.006-.013.008-.026.007-.041 0-.014-.004-.027-.01-.039-.808-1.567-1.744-3.037-2.814-4.41-2.626-3.37-6.012-5.524-10.158-6.466-.013-.003-.025-.003-.039 0-.012.002-.022.008-.033.017-.012.01-.02.02-.024.031-.006.012-.009.025-.009.038v1.968c0 .078-.021.149-.062.202-.301.394-.612.405-.936.037-.046-.053-.072-.121-.078-.195l-.165-2.214c-.004-.042-.021-.082-.051-.11-.03-.03-.068-.049-.109-.052-3.545-.302-6.92.122-10.126 1.272-.03.011-.056.031-.073.057-.018.027-.024.059-.021.087l.228 2.661c.032.374-.131.58-.488.62-.249.028-.438-.054-.562-.245-.071-.107-.116-.287-.135-.539-.053-.703-.116-1.386-.189-2.047-.001-.018-.008-.035-.018-.05s-.022-.028-.037-.037c-.016-.009-.033-.015-.051-.016-.019-.001-.036.001-.053.009-2.278.945-4.469 2.091-6.568 3.438-.118.076-.106.133.035.168l2.127.546c.062.017.122.062.165.127.247.372.216.644-.094.813-.169.093-.398.109-.688.048-.924-.195-1.814-.398-2.671-.608-.228-.057-.436-.015-.624.125-4.109 3.002-7.655 6.479-10.64 10.433-.021.03-.037.063-.046.097s-.01.068-.003.101l.467 2.255c.018.082.056.158.114.223.062.064.137.115.224.147 2.942 1.075 5.219 2.834 6.827 5.275.772 1.176 1.353 2.505 1.736 3.987.722 2.773.715 5.604-.02 8.493-.011.037-.011.076-.006.114.007.039.02.075.041.107.986 1.559 2.021 3.035 3.098 4.435.008.012.019.021.03.026.013.006.024.01.039.012.015 0 .026-.003.04-.009.013-.006.022-.014.032-.022l2.343-2.608c.029-.035.053-.076.064-.122.013-.045.017-.094.009-.144-.496-3.174-1.167-6.31-2.018-9.402-.082-.301-.107-.533-.078-.696.071-.373.321-.496.753-.369.076.021.146.062.201.119.055.058.096.128.117.204.832 2.987 1.499 5.947 1.999 8.882.027.168.096.183.201.045l1.636-2.138c.02-.027.048-.047.078-.062.03-.014.065-.021.102-.021.475.019.697.21.666.578-.018.188-.127.417-.33.692-.66.888-1.328 1.768-2.005 2.64-.021.027-.036.059-.044.09-.01.033-.012.067-.008.102.306 2.39.447 4.774.423 7.156-.002.016.002.029.008.044s.014.026.024.038c.011.01.022.019.038.022.014.006.027.01.044.009 1.666-.029 3.319-.099 4.962-.206 2.169-.141 4.405-.057 6.713.249.036.005.072-.002.104-.021.03-.021.054-.05.063-.084.334-1.021.864-1.938 1.592-2.761.379-.427.709-.438.99-.035.163.231.154.458-.025.677-.639.771-1.096 1.551-1.372 2.339-.004.013-.007.024-.005.039.001.013.004.025.011.039.007.012.017.022.026.031.012.009.024.016.037.02l3.092.884c.035.012.071.016.106.011.034-.004.068-.017.098-.033 1.811-1.094 3.57-2.267 5.279-3.521 2.496-1.831 4.685-3.981 6.562-6.447.025-.034.04-.076.041-.121.002-.044-.011-.089-.035-.128l-.953-1.522c-.018-.028-.028-.061-.033-.095-.004-.034-.003-.07.006-.104.104-.443.334-.617.682-.521.204.059.394.219.571.483zm-53.513-32.154-1.707 2.592c-.042.063-.028.082.043.054l1.722-.687c.031-.013.057-.033.076-.061.018-.026.028-.059.028-.091l.011-1.752c.001-.214-.058-.232-.173-.055zm-24.563.484c-1.854-.241-3.626-.21-5.315.095-.839.149-1.887.415-3.143.797-1.018.308-2.038.677-3.058 1.104-.078.032-.147.08-.204.141-.058.061-.102.134-.129.212-1.207 3.483-1.955 7.037-2.244 10.656-.001.014.001.026.006.038.005.013.013.022.023.03s.021.014.034.016c.012.002.023.001.035-.003 2.926-.882 5.865-1.513 8.818-1.894.033-.004.064-.018.092-.037.026-.02.047-.047.061-.078 1.541-3.761 3.233-7.42 5.078-10.976.005-.011.008-.021.008-.033s-.003-.022-.008-.033c-.006-.01-.014-.019-.022-.024-.01-.005-.02-.01-.032-.011zm7.173 10.659c.365.012.8.003 1.307-.023.013 0 .026-.005.039-.012.012-.006.021-.016.029-.025.009-.012.015-.023.018-.037.003-.015.002-.028-.001-.041-.582-2.436-1.523-4.678-2.825-6.729-.994-1.566-2.444-2.7-4.353-3.397-.027-.011-.06-.011-.087 0s-.051.03-.063.057c-1.792 3.389-3.429 6.87-4.909 10.44-.005.014-.007.028-.005.044.001.015.007.028.016.042.01.013.021.021.035.028s.029.01.043.009c3.56-.356 7.146-.473 10.756-.356zm25.23-.143c.016.11.059.123.128.035 2.688-3.402 5.789-6.438 9.305-9.106.115-.089.104-.146-.042-.168-2.636-.436-5.432-.571-8.39-.41-.052.003-.102.022-.143.054s-.07.075-.088.125c-1.005 2.993-1.262 6.15-.77 9.47zm-7.617 2.102 5.1 1.229c.035.008.07.008.102-.001.032-.011.058-.027.075-.053l1.198-1.696c.052-.072.087-.159.104-.255s.016-.196-.005-.299c-.668-3.435-.485-6.914.549-10.438.004-.012.004-.024.001-.037-.002-.012-.008-.023-.017-.032-.009-.01-.019-.017-.029-.021-.012-.004-.023-.007-.034-.004-1.95.256-3.902.682-5.857 1.275-.026.008-.052.025-.068.048-.019.022-.029.05-.03.079-.219 3.378-.61 6.735-1.17 10.074-.005.028.001.057.019.081.01.026.034.044.062.05zm-7.295-1.23 5.934.952c.026.004.052-.003.072-.018.021-.015.035-.038.04-.063.534-3.145.909-6.268 1.123-9.371 0-.013-.001-.024-.006-.035-.005-.012-.012-.021-.022-.028-.009-.008-.02-.013-.032-.015-.011-.002-.023-.001-.034.002-.737.245-1.453.54-2.149.885-.012.006-.139.058-.381.155-.296.12-.546.345-.752.677-1.321 2.143-2.604 4.391-3.85 6.744-.007.011-.01.022-.01.037 0 .012.003.024.01.036.006.011.014.021.023.028s.022.011.034.014zm-40.769 1.702c-.707 1.648-1.158 3.328-1.354 5.041-.013.121.028.146.125.076 2.832-2.018 5.852-3.571 9.06-4.661.045-.016.084-.043.112-.081.029-.037.047-.083.05-.13.241-3.511.893-6.95 1.952-10.316.051-.162.002-.203-.145-.123-1.997 1.07-3.811 2.378-5.438 3.921-1.883 1.786-3.337 3.877-4.362 6.273zm36.616-2.129c.888.096 1.775.184 2.665.264.031.003.063-.003.091-.02.028-.015.053-.038.067-.066l3.103-5.599c.109-.199.071-.234-.114-.108-2.404 1.599-4.663 3.381-6.777 5.349-.055.05-.046.082.026.099.138.033.276.054.418.06.328.011.502.02.521.021zm70.199-3.295c-1.278-.457-2.591-.547-3.938-.271-.014.003-.024.008-.035.016-.01.008-.02.018-.024.03-.006.011-.009.023-.009.037 0 .013.002.025.008.038.655 1.431 1.244 2.889 1.769 4.372.945 2.682 1.508 5.443 1.684 8.285.305 4.912-.912 9.371-3.652 13.376-.019.027-.029.059-.032.092-.002.031.004.064.018.096 1.667 3.674 2.507 7.51 2.521 11.507.006 1.613-.146 3.06-.453 4.342-.416 1.737-1.094 3.408-2.033 5.017-.031.055-.049.115-.049.179-.002.062.015.124.047.179 1.021 1.828 1.832 3.672 2.426 5.533.032.102.082.111.15.026 3.889-4.876 6.675-10.321 8.356-16.34.137-.485.193-.989.175-1.514-.26-6.897-1.081-13.729-2.465-20.49-.995-4.854-2.398-9.608-4.212-14.267-.021-.056-.055-.106-.098-.148-.047-.044-.096-.075-.154-.095zm8.047 31.079c.953-5.068 1.114-10.161.482-15.279-.43-3.478-1.428-6.76-2.992-9.844-.493-.972-1.011-1.827-1.551-2.563-.613-.84-1.273-1.594-1.979-2.261-.04-.038-.074-.045-.104-.021-.016.012-.024.032-.027.057s.002.053.013.079c.665 1.719 1.25 3.465 1.752 5.24 2.284 8.055 3.695 16.249 4.229 24.583.03.476.088.48.177.009zm-102.91 7.162c.079.056.144.131.184.22.041.088.057.187.046.281-.387 3.737-.546 7.417-.478 11.041.045 2.271.22 4.563.522 6.879.006.052.024.1.055.144.029.041.069.074.114.098 2.132 1.06 4.351 1.852 6.655 2.378.261.061.517.041.765-.062 1.32-.527 2.65-1.192 3.991-1.992.064-.038.121-.092.162-.154.042-.064.068-.137.081-.213l.14-.997c.005-.03-.001-.062-.018-.088-.018-.027-.042-.046-.072-.057-.913-.285-1.771-.599-2.576-.938-2.923-1.226-5.112-3.256-6.565-6.089-.211-.409-.132-.72.235-.936.329-.192.577-.115.743.229.905 1.886 2.225 3.398 3.958 4.542 1.292.852 2.725 1.504 4.295 1.958.021.006.044.008.065.004.021-.003.043-.012.062-.023.02-.013.035-.028.047-.048.013-.02.021-.042.025-.063l.836-5.272c.044-.276.21-.424.498-.438.308-.016.502.101.583.349.041.124.039.323-.006.596-.272 1.653-.531 3.344-.778 5.067-.009.062.007.126.044.178.038.054.094.089.157.103l.964.198c.04.009.081.009.119 0 .039-.01.074-.025.104-.05 2.146-1.718 4.075-3.667 5.787-5.853.012-.017.021-.032.024-.05.005-.019.005-.036.002-.057-.003-.019-.01-.036-.021-.052-.011-.017-.023-.029-.04-.04l-3.969-2.626c-.211-.139-.281-.336-.21-.592.132-.475.427-.564.887-.272 1.336.852 2.669 1.7 4.001 2.552.036.022.08.03.122.022.042-.009.08-.034.104-.069 2.874-4.19 4.91-8.764 6.106-13.719.009-.033.009-.066-.001-.102-.009-.033-.025-.063-.049-.089-1.648-1.774-2.799-3.797-3.449-6.067-.003-.01-.044-.132-.124-.366-.154-.455-.023-.729.391-.822.39-.088.635.063.735.453.541 2.079 1.482 3.896 2.827 5.448.047.056.081.048.101-.023l2.648-9.943c.004-.014.004-.028.002-.042-.002-.015-.007-.029-.015-.041s-.019-.022-.029-.031c-.012-.009-.025-.014-.04-.017-.908-.182-1.812-.382-2.714-.598-.247-.061-.42-.156-.521-.289-.172-.232-.146-.468.079-.704.059-.062.131-.11.209-.136.079-.026.161-.032.238-.016l2.908.608c.042.01.086.002.122-.02.037-.021.062-.055.073-.094 1.324-5.055 2.477-10.181 3.459-15.377.005-.023.004-.046 0-.07-.005-.022-.015-.045-.027-.063-.013-.02-.028-.035-.049-.048-.019-.013-.04-.021-.062-.023l-6.255-.99c-.034-.006-.07 0-.104.019-.032.018-.058.045-.074.079-1.115 2.226-2.204 4.484-3.267 6.776-.123.265-.264.437-.422.515-.288.145-.534.042-.741-.312-.019-.029-.029-.062-.034-.097-.005-.034-.003-.07.006-.104.068-.266.218-.653.451-1.167.865-1.913 1.787-3.837 2.767-5.771.007-.012.01-.025.01-.038 0-.014-.003-.027-.01-.038-.006-.012-.015-.022-.025-.029-.011-.008-.023-.012-.037-.014-1.365-.131-2.7-.262-4.003-.392-.503-.052-.862.134-1.079.556-.029.058-.037.132-.024.21l.914 5.084c.058.315-.067.529-.375.642-.244.092-.439.047-.587-.129-.081-.096-.142-.262-.184-.499-.257-1.407-.513-2.816-.766-4.228-.032-.184-.117-.211-.254-.086-1.727 1.594-3.368 3.223-4.926 4.885-.049.052-.113.084-.182.092-.501.053-.74-.115-.718-.503.014-.205.125-.423.335-.655 1.653-1.838 3.421-3.56 5.301-5.164.219-.188.186-.29-.103-.305-4.271-.222-8.562-.079-12.873.43-.032.003-.063.016-.089.036-.025.021-.046.049-.058.079-1.154 2.975-2.22 6.014-3.198 9.118-.004.015-.006.031-.002.047.002.017.01.031.021.043.01.013.022.021.037.028.016.006.031.008.048.006 1.244-.138 2.495-.137 3.752.005.403.046.557.283.457.711-.062.265-.229.39-.497.374-1.189-.059-2.495-.031-3.914.079-.094.008-.184.044-.255.104-.073.061-.125.142-.15.232-.295 1.073-.592 2.15-.891 3.229-.007.018-.027.11-.065.281-.116.511-.406.668-.871.473-.275-.115-.374-.319-.294-.61l.894-3.346c.003-.012.003-.024 0-.035-.004-.012-.01-.021-.017-.032-.008-.009-.018-.015-.028-.02-.012-.004-.022-.004-.034-.003-1.482.254-2.876.568-4.184.945-.092.026-.17.087-.22.168-.05.08-.068.178-.052.271l.804 4.346c.013.076.003.149-.026.208-.235.464-.551.524-.943.183-.052-.046-.087-.108-.106-.183-.355-1.436-.641-2.888-.851-4.354-.002-.014-.007-.026-.015-.038-.007-.012-.017-.021-.027-.028-.012-.008-.023-.012-.036-.014-.015-.002-.026-.001-.04.003-2.971.955-5.792 2.33-8.466 4.125-.032.021-.056.053-.068.089s-.013.075-.001.112c.623 1.933 1.439 3.945 2.45 6.039.042.085.058.181.047.275-.011.096-.048.186-.108.258-.396.496-.755.417-1.073-.238-.884-1.804-1.644-3.617-2.281-5.441-.007-.019-.019-.035-.033-.048s-.034-.022-.053-.026c-.021-.004-.04-.003-.06.003-.019.007-.035.018-.049.032-1.233 1.368-2.116 2.893-2.646 4.572-.789 2.492-.902 5.212-.34 8.159.688 3.618 2 6.98 3.938 10.095 1.323 2.123 2.838 4.075 4.547 5.854.041.04.068.033.083-.021 1.244-4.707 2.921-9.168 5.032-13.38.017-.033.039-.062.063-.085.026-.023.057-.04.089-.051.415-.14.675-.062.779.235.062.18.032.411-.089.701-.294.7-.6 1.396-.915 2.088-1.651 3.627-2.976 7.416-3.971 11.364-.012.046-.01.094.002.139.014.045.039.085.074.117 1.711 1.578 3.563 2.963 5.559 4.157.078.046.112.022.104-.069-.593-5.676-.559-11.364.102-17.064.033-.283.09-.487.173-.612.179-.273.431-.295.758-.069zm-2.886-30.293c-.085 2.311.017 4.684.301 7.121.003.024.013.05.025.072.013.021.031.041.052.055s.045.023.07.027c.024.004.051.002.075-.006 1.553-.453 3.152-.815 4.803-1.093.032-.006.062-.021.088-.043.024-.021.043-.05.053-.082.948-3.07 1.997-6.103 3.15-9.098.004-.011.006-.022.004-.033-.001-.011-.006-.022-.012-.031s-.017-.016-.026-.02-.021-.005-.031-.003c-2.756.366-5.554.986-8.394 1.862-.046.015-.087.045-.116.085-.028.039-.043.089-.042.139.012.411.011.76 0 1.048zm45.621-1.327c.393.236.542.184.45-.155-.012-.047-.033-.138-.064-.271-.064-.282-.208-.184-.428.295-.01.022-.012.049-.004.073.008.023.024.045.046.058zm-10.355 15.246 1.493.42c.03.008.062.005.091-.011.026-.016.046-.041.056-.072 1.403-5.294 3.61-10.25 6.618-14.865.007-.011.011-.022.013-.036.001-.013 0-.024-.005-.037s-.012-.022-.022-.031c-.009-.008-.02-.015-.032-.019l-4.644-1.09c-.02-.004-.04-.004-.059-.001-.021.004-.038.011-.055.022s-.03.024-.042.042c-.011.017-.018.035-.021.055-.991 5.261-2.152 10.412-3.483 15.454-.009.035-.005.072.013.104.016.032.046.055.079.065zm-45.839-9.43c-.078 2.454.21 4.906.863 7.358.003.013.009.024.018.034s.02.019.031.022.025.006.038.006c.013-.001.025-.006.036-.014 2.746-1.736 5.625-3.127 8.638-4.171.029-.011.055-.03.07-.056.016-.026.024-.056.021-.086-.281-2.772-.391-5.526-.328-8.261 0-.018-.004-.035-.012-.05-.008-.017-.019-.029-.032-.04-.015-.012-.031-.018-.049-.021-.018-.002-.034 0-.052.005-3.4 1.206-6.452 2.903-9.152 5.093-.026.021-.049.049-.063.079-.016.034-.025.068-.027.102zm48.684 10.28c3.398 1.05 6.543 2.54 9.436 4.472 1.057.707 2.635 1.953 4.737 3.735.012.01.022.017.037.021.013.003.026.005.04.003s.025-.007.038-.014c.012-.007.021-.018.03-.028 1.13-1.627 1.964-3.396 2.507-5.309.009-.032.012-.067.007-.102-.006-.034-.02-.066-.038-.096-2.387-3.671-4.416-7.354-6.087-11.046-.807-1.782-1.571-3.81-2.295-6.081-.012-.035-.029-.066-.054-.092-.023-.025-.053-.043-.083-.053l-1.497-.49c-.036-.013-.076-.012-.113.003-.037.014-.069.04-.092.073-3.008 4.563-5.229 9.51-6.664 14.838-.01.034-.006.07.012.102.017.031.046.054.079.064zm13.639-11.601c-1.11-1.023-2.361-1.82-3.758-2.389-.056-.023-.073-.007-.054.053 1.141 3.379 2.563 6.631 4.274 9.754.972 1.771 1.967 3.484 2.991 5.137.099.159.164.146.195-.04.396-2.398.296-4.714-.301-6.944-.579-2.192-1.697-4.049-3.347-5.571zm-60.591 46.404c.813.588 1.668 1.106 2.562 1.56.012.005.023.008.035.007.013 0 .024-.004.035-.01.01-.006.019-.014.025-.024.006-.011.009-.021.01-.033.136-2.187.44-4.391.915-6.612.013-.065.011-.132-.008-.195-.02-.062-.053-.121-.099-.169-2.441-2.465-4.446-5.146-6.014-8.049-1.644-3.042-2.722-6.13-3.236-9.264-.443-2.705-.362-5.276.244-7.719.315-1.271.759-2.395 1.328-3.364.606-1.034 1.368-1.984 2.283-2.852.027-.025.047-.059.057-.096s.009-.076 0-.112c-.643-2.293-1.004-4.651-1.083-7.079-.004-.105-.044-.122-.119-.045-3.947 3.97-6.224 8.779-6.825 14.43-.515 4.834-.189 9.831.977 14.992.784 3.474 2.157 6.686 4.119 9.64 1.296 1.956 2.896 3.622 4.794 4.994zm40.971-23.65c1.145.854 2.348 1.454 3.612 1.803.012.004.023.004.036.001.012-.002.022-.008.031-.017.01-.007.018-.019.021-.029.005-.011.006-.022.005-.036-.35-4.027-.101-8.018.746-11.966.006-.031.001-.062-.014-.088-.016-.026-.039-.045-.067-.054l-1.529-.462c-.012-.004-.023-.005-.035-.002-.013.002-.025.007-.035.013-.012.006-.021.015-.028.025-.007.012-.014.023-.018.036l-2.804 10.551c-.011.041-.009.085.004.127.015.037.041.072.075.098zm5.102 2.203c1.416.293 2.78.484 4.099.572 1.255.083 2.414.019 3.477-.192 1.08-.215 2.143-.641 3.188-1.277 1.27-.772 2.442-1.781 3.519-3.025.021-.024.038-.055.049-.085.011-.031.014-.066.012-.1-.004-.033-.014-.064-.029-.095s-.036-.055-.062-.076c-.872-.695-1.785-1.428-2.739-2.192-3.212-2.579-6.837-4.481-10.876-5.707-.014-.005-.029-.006-.043-.004-.016.001-.028.006-.041.014-.012.007-.022.018-.031.029-.008.012-.014.024-.017.04-.873 3.958-1.098 7.926-.675 11.904.006.047.025.091.057.126s.066.059.112.068zm16.19-4.291c.824.603 1.701 1.134 2.63 1.592.027.013.057.018.085.013.029-.006.058-.02.077-.041l2.344-2.479c.021-.024.035-.056.036-.09.003-.033-.007-.064-.025-.093l-2.62-3.729c-.104-.147-.185-.136-.239.035-.521 1.582-1.293 3.126-2.313 4.632-.018.024-.023.055-.019.085.003.031.02.056.044.075zm28.147 4.865c4.611 1.997 8.312 5.078 11.101 9.244.008.013.02.021.032.028s.027.01.042.01.028-.005.04-.012c.013-.009.022-.02.03-.031 1.4-2.543 2.097-5.259 2.089-8.146-.012-3.651-.723-7.151-2.136-10.501-.007-.017-.018-.028-.029-.039-.014-.01-.029-.016-.044-.02-.018-.002-.033 0-.049.007s-.027.017-.037.028c-1.693 2.11-3.606 3.991-5.739 5.642-1.664 1.288-3.434 2.502-5.311 3.642-.091.056-.087.106.011.148zm-19.483-7.878-1.805 1.997c-.028.03-.043.07-.046.111-.001.041.012.083.037.116l2.028 2.688c.153.201.224.178.206-.072l-.298-4.8c-.007-.111-.048-.125-.122-.04zm-4.612 5.122c1.319.41 2.639.669 3.954.773.071.006.086-.021.043-.079l-2.059-2.764c-.007-.008-.015-.015-.024-.021-.011-.005-.021-.009-.03-.009-.012-.001-.022.001-.031.005-.011.005-.021.012-.027.02l-1.847 1.996c-.006.006-.009.015-.01.021-.003.009-.003.018 0 .025.002.007.006.015.011.02.004.007.012.012.02.013zm-15.751 4c-1.103-.055-2.546-.239-4.333-.558-.012-.002-.024-.002-.037.002-.012.004-.023.011-.032.02-.011.01-.018.021-.021.031-.005.013-.006.025-.005.037.509 4.062 2.293 7.519 5.354 10.366.025.023.059.036.093.037.035 0 .067-.013.093-.035 3-2.739 5.785-5.648 8.359-8.731 1.319-1.583 2.679-3.134 4.077-4.651.007-.008.013-.02.017-.03.002-.012.003-.022.001-.035s-.007-.021-.016-.031c-.008-.011-.017-.018-.026-.022-.856-.411-1.683-.923-2.479-1.534-.034-.026-.078-.039-.122-.034-.043.006-.084.026-.111.062-.703.822-1.433 1.555-2.189 2.195-2.481 2.096-5.356 3.067-8.623 2.911zm1.573 21.088c-1.527-.552-3.035-1.157-4.521-1.817-.03-.014-.062-.021-.098-.016-.032.002-.064.014-.094.032-.798.524-1.549 1.114-2.251 1.768-.009.008-.016.019-.021.029-.005.012-.007.024-.005.036.002.014.006.024.013.035s.016.02.026.024c1.812 1.061 3.246 2.532 4.303 4.415.007.013.016.022.026.03.012.01.024.016.038.02.014.003.028.003.042 0 .013-.003.027-.009.038-.018.773-.563 1.511-1.109 2.216-1.641.36-.27.651-.245.873.074.209.302.177.555-.1.76l-2.524 1.883c-.025.021-.046.048-.057.077-.011.03-.011.062-.002.092.715 2.244 1.027 4.516.938 6.813-.071 1.882-.108 2.825-.108 2.829.064 1.443.347 2.83.845 4.158.053.141.119.146.195.018 1.184-1.995 2.301-3.986 3.35-5.976.124-.235.264-.389.422-.457.287-.125.52-.04.693.254.047.079.072.169.075.262.003.092-.019.183-.062.265-1.294 2.49-2.593 4.812-3.896 6.966-.03.051-.046.108-.045.17 0 .061.018.119.049.171 1.512 2.393 3.514 4.189 6.007 5.391.119.058.245.082.379.072 7.102-.516 14.038-1.88 20.811-4.097.044-.015.081-.04.11-.074.03-.034.049-.077.058-.12.129-.789.19-1.604.185-2.45-.007-.597.261-.825.801-.684.105.027.197.089.263.173.064.084.099.186.096.29l-.062 2.206c0 .012.003.022.008.034.006.011.014.021.021.026.01.007.02.013.03.013.012.004.021.003.033-.002 5.261-1.864 10.165-4.425 14.715-7.681 3.048-2.18 5.897-4.793 8.556-7.841.149-.173.239-.372.271-.602.398-2.971.252-6.087-.441-9.346-.025-.123-.081-.14-.166-.049-3.58 3.718-7.874 6.338-12.885 7.863-.238.069-.444.018-.619-.161-.314-.32-.306-.59.027-.807.104-.065.311-.148.62-.245 4.817-1.508 8.99-4.18 12.519-8.017.039-.042.067-.096.08-.152.015-.058.012-.116-.006-.173-.574-1.924-1.333-3.74-2.274-5.451-.007-.015-.018-.025-.03-.035-.014-.009-.028-.014-.046-.015-.015-.002-.029.001-.045.007-.015.008-.026.018-.036.028-2.205 2.727-4.812 4.828-7.82 6.308-.865.427-1.744.819-2.639 1.182-.013.005-.022.012-.032.021-.009.011-.018.021-.021.033-.005.014-.006.027-.005.04s.006.026.012.038c.586.994.872 2.066.86 3.219-.001.228-.059.4-.171.521-.178.189-.386.221-.624.09-.141-.079-.236-.207-.288-.383-.048-.164-.074-.331-.08-.502-.015-.386-.034-.63-.062-.733-.152-.632-.396-1.228-.731-1.787-.016-.025-.041-.047-.07-.059-.028-.011-.062-.012-.093-.002-7.03 2.201-14.151 2.544-21.365 1.029-.413-.089-.646-.146-.705-.169-.332-.148-.4-.434-.205-.854.046-.095.121-.173.216-.221.092-.046.197-.06.299-.035 7.012 1.586 14.006 1.333 20.983-.758.021-.007.041-.02.059-.034.015-.018.025-.035.033-.057.006-.022.009-.046.004-.066-.004-.022-.015-.042-.028-.061-1.132-1.396-2.357-2.72-3.678-3.974-1.423-1.353-2.143-2.036-2.157-2.052-.709-.7-1.412-1.403-2.113-2.108-.009-.01-.02-.017-.031-.021-.014-.005-.026-.006-.039-.005-.015.003-.025.008-.037.015s-.022.018-.03.028c-1.383 2.073-3.105 3.828-5.166 5.263-.245.172-.473.152-.685-.054-.366-.358-.328-.685.109-.978.106-.071.164-.11.175-.117 1.89-1.375 3.467-3.029 4.736-4.965.026-.041.04-.09.036-.14-.005-.05-.024-.097-.059-.135l-2.385-2.638c-.021-.022-.051-.039-.082-.046s-.063-.004-.094.011l-3.506 1.567c-.065.026-.138.03-.203.006-.484-.186-.62-.453-.403-.804.106-.171.305-.323.597-.458.845-.385 1.74-.789 2.687-1.21.014-.006.023-.015.031-.024.01-.011.016-.023.02-.036.003-.015.003-.027-.002-.041-.004-.015-.01-.025-.019-.036l-4.257-4.979c-.076-.088-.117-.075-.124.039-.124 2.072-.495 4.105-1.115 6.098-.021.07-.065.129-.125.162-.426.239-.722.133-.889-.322-.024-.063-.027-.139-.01-.211.552-2.233.927-4.527 1.119-6.885.003-.016 0-.031-.004-.047-.006-.015-.015-.027-.022-.04-.012-.012-.023-.021-.038-.027-.015-.008-.029-.013-.044-.013-1.951-.104-3.868-.457-5.755-1.06-.03-.01-.062-.011-.096-.003-.03.009-.06.025-.083.051-.882.949-2.431 2.724-4.647 5.325-2.53 2.966-5.216 5.754-8.059 8.362-.016.017-.027.033-.036.055-.008.02-.012.042-.011.062 0 .021.006.042.018.062.01.019.023.035.042.049l1.947 1.493c.061.045.103.104.121.171.141.455-.029.722-.509.801-.072.012-.144-.005-.2-.046l-2.312-1.677c-.026-.019-.058-.028-.087-.028-.03 0-.06.011-.082.028-2.035 1.736-4.186 3.368-6.449 4.892-.113.075-.105.144.021.201l2.244 1.029c.03.014.063.02.096.018.031-.003.062-.013.086-.031 1.076-.747 2.18-1.447 3.311-2.104.239-.14.452-.184.641-.134.346.091.452.344.319.763-.021.064-.065.121-.128.161l-2.789 1.817c-.129.085-.124.154.019.215l3.848 1.603c.076.032.142.085.19.152s.075.147.08.231c.019.299-.066.499-.254.605-.131.086-.312.08-.544-.003zm-17.753-10.133c3.019 1.818 6.055 3.505 9.111 5.054.027.015.059.021.09.02.031-.003.061-.012.088-.028 2.403-1.549 4.684-3.241 6.843-5.08.021-.019.039-.04.05-.065.013-.024.019-.052.021-.08 0-.027-.004-.055-.016-.08-.011-.026-.025-.049-.046-.067-3.272-3.136-5.144-6.933-5.608-11.393-.003-.034-.017-.064-.037-.091-.022-.025-.05-.044-.082-.052-1.552-.417-2.942-1.038-4.17-1.861-.018-.011-.036-.018-.057-.021-.021-.002-.04 0-.06.01-.019.007-.036.019-.05.033-.014.017-.023.034-.029.056-1.22 4.902-3.246 9.401-6.079 13.498-.009.012-.015.024-.018.04-.003.014-.003.027 0 .042.002.015.008.027.017.04.007.01.018.019.032.025zm49.514-12.806c-.988-.143-1.972-.238-2.946-.288-.748-.036-1.732-.023-2.952.037-1.622.081-3.243.164-4.863.248-.073.003-.085.034-.038.09l4.695 5.515c.02.023.047.039.077.047.03.006.062.002.09-.012l4.849-2.326c.062-.029.116-.072.161-.125.046-.052.078-.111.1-.179l.891-2.912c.002-.009.004-.021.002-.029-.001-.012-.004-.021-.012-.029-.004-.01-.014-.018-.021-.022-.013-.009-.023-.012-.033-.015zm3.472.785-2.091-.532c-.028-.008-.06-.003-.086.014-.025.016-.046.041-.057.072l-.593 1.853c-.063.191-.003.24.178.145l2.655-1.428c.102-.056.1-.097-.006-.124zm-2.776 11.996c.893.851 1.779 1.705 2.663 2.563 1.026.995 2.003 2.099 2.927 3.31.033.043.08.074.131.088.054.015.109.012.159-.007 1.739-.695 3.342-1.505 4.811-2.428 2.119-1.333 3.973-3.061 5.56-5.182.016-.021.024-.048.025-.075.001-.024-.007-.053-.021-.074-2.856-4.462-6.763-7.674-11.717-9.64-.031-.013-.064-.018-.101-.015-.034.002-.069.013-.103.029l-4.789 2.587c-.047.025-.089.061-.123.101-.033.04-.058.085-.071.135-.566 1.892-1.315 3.707-2.249 5.449-.025.048-.035.102-.028.156.009.055.032.104.069.144.978 1.019 1.93 1.97 2.857 2.859zm28.844-8.742c-1.871 5.223-4.558 9.944-8.061 14.163-.021.026-.037.057-.044.09-.008.033-.007.067.001.103.668 2.913.927 5.865.772 8.857-.008.143.031.157.114.043 2.041-2.766 3.703-5.75 4.989-8.954 1.294-3.227 2.052-6.711 2.271-10.455.074-1.238.111-2.513.111-3.817.004-.311-.049-.321-.153-.03zm-34.611 2.643 1.874 2.089c.009.01.019.018.03.021.013.005.023.006.037.004s.024-.007.035-.015c.01-.007.02-.019.024-.029.644-1.25 1.189-2.519 1.636-3.803.044-.128.006-.163-.117-.105l-3.494 1.707c-.012.004-.021.015-.03.023-.008.011-.013.022-.016.035-.003.015-.002.026.002.04.005.012.01.024.019.033zm-50.471 12.746 9.795 1.342c.061.011.118.001.164-.022l4.032-2.085c.054-.027.052-.056-.002-.083-2.964-1.498-5.849-3.093-8.655-4.781-.024-.016-.055-.021-.084-.016-.029.006-.057.021-.075.046-1.592 2.001-3.333 3.812-5.222 5.437-.108.091-.092.145.047.162zm-24.409 4.211c2.399.919 4.928 1.341 7.582 1.263.017 0 .033-.004.049-.013.015-.007.027-.019.039-.031.011-.014.018-.03.021-.048.004-.018.005-.034.001-.054l-.661-3.064c-.01-.046-.029-.09-.057-.126-.027-.037-.062-.067-.103-.091-2.205-1.19-4.232-2.624-6.082-4.299-.011-.01-.024-.017-.038-.019-.016-.004-.03-.003-.043.002-.015.005-.027.013-.037.022-.011.013-.018.025-.021.039-.423 2.011-.673 4.098-.751 6.264-.001.031.007.064.025.093.02.028.046.05.076.062zm36.409-2.397c1.153.281 2.259.646 3.317 1.095.061.025.127.034.193.024.065-.011.128-.036.181-.079l2.16-1.756c.009-.009.016-.018.02-.027.005-.011.006-.021.004-.033-.001-.011-.006-.021-.012-.031-.007-.009-.016-.017-.026-.021l-2.422-1.098c-.029-.014-.062-.02-.096-.019-.034.002-.066.011-.097.027l-3.236 1.772c-.118.068-.114.116.014.146zm-4.481.393-8.778-1.191c-.131-.021-.261.011-.366.083l-1.741 1.203c-.028.021-.054.047-.071.075-.019.031-.029.064-.032.101l-.195 1.761c-.004.026-.001.055.009.079.008.025.021.05.041.069.018.021.041.036.065.048.025.011.052.017.08.016 3.854-.102 7.521-.808 11.005-2.117.159-.061.154-.103-.017-.127zm-11.501 13.977c1.024.241 2.006.386 2.944.432 3.357.164 6.595-.372 9.712-1.609.03-.013.057-.031.075-.06.021-.027.03-.059.032-.092.195-2.851 1.143-5.41 2.84-7.683.843-1.128 1.797-2.204 2.86-3.228.009-.008.015-.019.018-.029s.004-.022.001-.034c-.001-.012-.007-.021-.015-.031-.007-.01-.018-.017-.028-.021-1.478-.557-2.942-.949-4.396-1.179-.071-.011-.144-.002-.208.026-4.247 1.873-8.754 2.863-13.521 2.972-.033 0-.065.014-.09.036s-.041.056-.044.088c-.323 3.447-.433 6.855-.329 10.229.001.042.017.084.043.117.028.033.065.056.106.066zm-11.318-10.809c1.222-.104 2.474-.342 3.757-.71.148-.042.148-.085 0-.128-1.456-.426-2.91-.972-4.36-1.641-.113-.052-.154-.021-.124.098l.585 2.286c.007.029.024.056.052.072.026.02.057.026.09.023zm8.673-1.098c.426.057.825.092 1.201.104.026.001.131.019.315.048.2.032.302-.06.302-.276 0-.173.006-.31.02-.408.021-.153.016-.305-.015-.454-.003-.014-.008-.023-.016-.033-.009-.01-.019-.018-.03-.021-.012-.006-.024-.009-.038-.008-.013 0-.024.004-.038.01l-1.725.876c-.165.083-.157.136.024.162zm24.738 1.718c-.589-.52-1.312-1.016-2.173-1.489-.056-.031-.12-.045-.185-.037-.062.01-.123.037-.171.08-1.934 1.797-3.429 3.779-4.485 5.949-.594 1.217-.958 2.518-1.092 3.897-.002.016 0 .029.007.045.006.014.016.025.027.035.014.01.027.016.042.017.016.001.03-.001.044-.007 3.476-1.521 6.782-3.388 9.923-5.604.023-.018.043-.042.052-.071.008-.028.006-.061-.006-.087-.458-1.06-1.119-1.97-1.983-2.728zm-29.563 6.397c1.572 1.43 3.578 2.56 6.018 3.387.012.004.024.005.036.003.013-.002.022-.008.034-.015.009-.009.018-.019.021-.028.005-.012.008-.023.008-.037-.029-3.334.076-6.663.319-9.988.001-.026-.008-.056-.026-.077-.019-.021-.045-.034-.073-.038l-3.708-.423c-.152-.018-.286-.006-.401.034-1.802.619-3.697 1.066-5.684 1.343-.018.003-.033.008-.048.018-.015.009-.026.021-.035.036-.01.015-.016.031-.018.049-.002.017-.001.034.004.052.733 2.301 1.917 4.198 3.553 5.684zm-6.451 8.765c1.865 1.671 3.938 3.022 6.215 4.055 2.662 1.204 5.45 2.136 8.365 2.789.078.019.104-.012.078-.087-1.188-3.395-1.845-6.911-1.968-10.545-.002-.084-.03-.166-.081-.232-.051-.067-.121-.116-.2-.143-2.021-.625-3.938-1.586-5.751-2.886-1.442-1.032-2.568-2.252-3.375-3.658-.576-1.006-1.133-2.24-1.668-3.705-.011-.029-.029-.055-.057-.072-.025-.017-.058-.024-.089-.022-2.734.117-5.397-.255-7.995-1.119-.012-.005-.023-.006-.036-.004-.012.002-.023.006-.035.014-.01.007-.019.019-.023.028-.006.011-.009.022-.009.036.009 1.731.198 3.443.571 5.134.91 4.139 2.929 7.614 6.058 10.417zm33.778 5.763c.921.921 1.932 1.791 3.028 2.609.024.019.054.026.084.021.03-.003.057-.019.077-.041 1.29-1.579 2.478-3.217 3.565-4.911.019-.028.029-.062.032-.097s-.003-.068-.018-.102c-.544-1.206-.915-2.451-1.111-3.732-.103-.66-.148-1.666-.139-3.017.008-1.011.012-2.021.014-3.031.004-1.532-.229-3.053-.698-4.561-.006-.02-.017-.036-.029-.051-.015-.014-.03-.023-.049-.03-.019-.006-.038-.009-.058-.006-.019.003-.037.011-.053.021-3.259 2.296-6.74 4.227-10.442 5.796-.029.015-.055.034-.07.063-.017.027-.023.06-.021.093.074.678.188 1.337.345 1.979.148.603.367 1.231.659 1.891 1.183 2.671 2.811 5.039 4.884 7.106zm6.927 5.025c4.242 2.03 8.723 3.188 13.438 3.479 9.438.579 18.212-1.521 26.321-6.298 1.924-1.134 3.854-2.589 5.793-4.364 3.716-3.401 6.235-7.555 7.557-12.455.05-.184.009-.205-.119-.068-2.219 2.37-4.651 4.507-7.301 6.412-4.722 3.392-9.808 6.08-15.258 8.065-.01.002-.121.034-.336.094-.312.087-.511.283-.601.59-.071.248-.109.375-.112.381-.715 1.772-1.91 3.121-3.586 4.044-1.365.752-2.873 1.276-4.521 1.574-2.175.395-4.301.464-6.379.206-2.264-.28-4.455-.844-6.573-1.687-.008-.005-.178-.09-.509-.254-.309-.153-.636-.209-.979-.169-.312.036-.473.056-.479.056-2.054.108-4.159.179-6.316.208-.28.002-.293.066-.04.186zm-24.518-3.635c6.552 1.195 13.104 1.924 19.654 2.184.203.008.223-.049.058-.172-2.106-1.572-3.92-3.403-5.439-5.493-.974-1.339-1.735-2.576-2.285-3.714-.721-1.49-1.196-3.059-1.426-4.703-.003-.021-.012-.045-.024-.064-.013-.021-.03-.037-.05-.05-.021-.012-.042-.02-.066-.021-.022-.001-.047.002-.069.01-4.134 1.55-8.329 1.938-12.586 1.163-.015-.002-.027-.002-.039.001-.014.004-.025.01-.035.021-.01.008-.019.019-.023.029-.005.012-.007.026-.007.039.147 3.654.874 7.201 2.179 10.64.014.032.035.063.063.088.026.019.06.035.095.042zm21.767 2.064c.124.047.238.088.344.122.112.037.229.056.358.058 2.241.021 4.636-.023 7.184-.133.162-.006.175-.055.04-.144-1.877-1.227-3.405-2.71-4.583-4.451-.006-.01-.017-.019-.026-.024-.011-.006-.021-.008-.035-.008-.013 0-.023.002-.034.008-.012.007-.021.016-.027.024-1.034 1.531-2.118 3.007-3.252 4.428-.008.011-.014.021-.016.032s-.002.023.001.035.01.021.018.032c.006.01.016.018.028.021zm12.905.958c2.31.781 4.68 1.194 7.112 1.242 2.148.041 4.314-.322 6.5-1.092 2.038-.716 3.516-2.012 4.434-3.883.033-.066.016-.09-.056-.066-5.882 1.851-11.874 3.075-17.975 3.672-.201.018-.206.061-.015.127zm-31.262 1.987c.636.558 1.334 1.021 2.098 1.389 3.141 1.515 6.249 1.462 9.328-.153 1.411-.739 2.703-1.682 3.875-2.824.056-.053.045-.08-.029-.085-6.037-.297-12.055-.969-18.054-2.015-.062-.012-.079.012-.05.067.714 1.383 1.658 2.59 2.832 3.621z" fill="#a7c8e9"/><path d="m22.178 80.718c-7.586-3.212-9.966-10.764-3.838-20.34 5.978-9.353 12.21-8.493 15.125-7.718 4.041 1.079 6.253 3.277 6.818 6.847l1.078-2.874 3.43 1.452-8.317 27.881-4.832-2.046 1.66-4.005c-3.152 2.398-7.258 2.439-11.124.803zm2.497-7.669c7.78 3.294 10.385-2.032 11.377-4.426 3.076-7.423-.033-10.062-3.271-11.431-2.706-1.146-7.682-.382-11.393 5.97-2.38 4.101-2.415 7.474 3.287 9.887z" fill="#ff6c00"/></svg>