<svg enable-background="new 0 0 800 800" height="800" viewBox="0 0 800 800" width="800" xmlns="http://www.w3.org/2000/svg"><path d="m151.909 800h277.005c29.314-1.461 50.482-25.192 50.835-51.266v-124.071c27.236-35.464 65.036-60.598 92.407-94.776 9.621-12.062 20.317-21.396 32.095-28.002 42.187-21.477 91.303-8.464 124.933-38.985 26.321-61.341-10.501-134.821-68.28-155.521-47.188-16.269-94.244-5.367-135.919 14.863.121-73.237-.474-146.473-.861-219.709-4.454-59.624-44.597-102.137-101.671-102.533-57.52.163-99.345 49.749-100.377 102.531v86.161c-16.945 2.872-32.311 8.472-46.096 16.801-35.43-4.827-70.165 6.218-95.208 27.571-204.5 11.717-83.174 279.629-80.129 379.967v135.704c1.398 29.521 25.06 50.911 51.266 51.265z" fill="#6b7284"/></svg>