<svg enable-background="new 30 30 800 800" height="800" viewBox="30 30 800 800" width="800" xmlns="http://www.w3.org/2000/svg"><path d="m151.909 800h277.005c29.314-1.461 50.482-25.192 50.835-51.266v-124.071c27.236-35.464 65.036-60.598 92.407-94.776 9.621-12.062 20.318-21.396 32.095-28.002 42.187-21.477 91.303-8.464 124.933-38.986 26.321-61.34-10.501-134.821-68.281-155.521-47.188-16.269-94.244-5.367-135.919 14.863.122-73.237-.473-146.473-.861-219.709-4.453-59.623-44.596-102.136-101.67-102.532-57.519.163-99.345 49.749-100.377 102.531v86.161c-16.945 2.872-32.31 8.472-46.096 16.801-35.43-4.827-70.165 6.218-95.208 27.571-204.5 11.717-83.174 279.629-80.129 379.967v135.704c1.398 29.521 25.06 50.911 51.266 51.265zm0-184.814c-1.728-80.282-123.105-354.604 50.834-328.271 15.647-29.031 57.523-40.201 84.006-22.402 26.669-27.044 60.176-34.745 86.591-8.617 0-25.847.145-51.409.432-76.683.285-25.274.431-50.834.431-76.683.622-29.58 22.324-50.082 48.25-50.403 30.648.676 50.091 23.942 50.403 50.403.005 100.256.851 199.088.86 292.084 67.175-8.37 158.39-88.513 211.31-6.678 6.435 13.102 9.166 23.578 6.678 37.264-1.149 2.298-2.297 3.591-3.446 3.878-1.148.287-3.016.717-5.601 1.292-53.246 8.696-106.486 16.812-141.733 58.158-34.896 45.509-89.833 72.343-112.009 124.501v2.153h-277.006z" fill="#6b7284"/></svg>