<svg enable-background="new 0 0 512 512" height="512" viewBox="0 0 512 512" width="512" xmlns="http://www.w3.org/2000/svg"><path d="m256 0c-141.385 0-256 114.615-256 256s114.615 256 256 256 256-114.615 256-256-114.615-256-256-256z" fill="#043f87"/><circle cx="256" cy="256" fill="#fff" r="168.5"/><path d="m178.586 192.51c-9.983-4.232-21.521.324-25.778 10.254-4.255 9.928.327 21.402 10.312 25.633l9.738 4.15c14.156 6.021 28.806 10.499 43.862 13.265v40.77c0 3.5-.573 7-1.719 10.254l-23.484 70.064c-3.438 10.256 2.128 21.322 12.438 24.74 10.311 3.416 21.44-2.117 24.878-12.369l19.967-59.568c1.063-3.092 3.928-5.207 7.201-5.207 3.274 0 6.22 2.115 7.202 5.207l19.968 59.568c3.436 10.252 14.566 15.785 24.876 12.369 10.312-3.418 15.876-14.484 12.44-24.74l-23.488-70.064c-1.146-3.336-1.718-6.754-1.718-10.254v-40.689c15.058-2.846 29.703-7.242 43.861-13.265l9.738-4.149c9.985-4.23 14.567-15.706 10.312-25.634-4.257-9.927-15.795-14.485-25.778-10.253l-9.821 4.068c-21.356 9.114-44.353 13.834-67.674 13.834-23.323 0-46.235-4.72-67.676-13.834l-9.739-4.149zm77.333-8.056c18.077 0 32.731-14.575 32.731-32.553s-14.654-32.551-32.731-32.551c-18.079 0-32.731 14.573-32.731 32.551-.002 17.978 14.652 32.553 32.731 32.553z" fill="#043f87"/></svg>