<svg enable-background="new 0 0 800 800" height="800" viewBox="0 0 800 800" width="800" xmlns="http://www.w3.org/2000/svg"><path d="m752.941 682.378c0 12.94-10.541 23.528-23.529 23.528h-658.824c-12.988 0-23.529-10.588-23.529-23.528v-376.471c0-12.941 10.541-23.529 23.529-23.529h658.823c12.988 0 23.529 10.588 23.529 23.529zm-23.529-447.059h-303.859c6.212-36.235 27.482-47.294 55.577-61.318 37.223-18.588 83.576-41.788 83.576-126.917h-47.059c0 56.047-24.142 68.094-57.601 84.847-33.459 16.706-73.977 37.6-81.883 103.388h-307.575c-38.918 0-70.588 31.671-70.588 70.588v376.471c0 38.917 31.671 70.588 70.588 70.588h658.824c38.917 0 70.588-31.671 70.588-70.588v-376.471c0-38.918-31.671-70.588-70.588-70.588zm-235.295 282.353h-188.235c-12.988 0-23.529 10.541-23.529 23.529v47.059c0 12.988 10.541 23.529 23.529 23.529h188.235c12.988 0 23.529-10.541 23.529-23.529v-47.059c0-12.988-10.541-23.529-23.529-23.529m141.177 0h-47.059c-12.988 0-23.529 10.541-23.529 23.529v47.059c0 12.988 10.541 23.529 23.529 23.529h47.059c12.988 0 23.529-10.541 23.529-23.529v-47.059c0-12.988-10.541-23.529-23.529-23.529m-423.529 0h-47.06c-12.988 0-23.529 10.541-23.529 23.529v47.059c0 12.988 10.541 23.529 23.529 23.529h47.059c12.988 0 23.529-10.541 23.529-23.529v-47.059c0-12.988-10.541-23.529-23.528-23.529m-.001-141.177h-47.058c-12.989 0-23.53 10.542-23.53 23.529v47.059c0 12.988 10.541 23.529 23.529 23.529h47.059c12.988 0 23.529-10.541 23.529-23.529v-47.059c0-12.988-10.541-23.528-23.529-23.529m94.118 94.118h47.059c12.988 0 23.529-10.542 23.529-23.53v-47.059c0-12.988-10.541-23.529-23.529-23.529h-47.058c-12.988 0-23.529 10.541-23.529 23.529v47.059c0 12.988 10.54 23.529 23.528 23.53m188.235-94.118h-47.059c-12.988 0-23.529 10.542-23.529 23.529v47.059c0 12.988 10.541 23.529 23.529 23.529h47.059c12.988 0 23.529-10.541 23.529-23.529v-47.059c0-12.988-10.541-23.528-23.529-23.529m141.177.001h-47.059c-12.988 0-23.529 10.541-23.529 23.529v47.059c0 12.988 10.541 23.529 23.529 23.529h47.059c12.988 0 23.529-10.541 23.529-23.529v-47.059c0-12.989-10.541-23.529-23.529-23.529" fill="#6b7284"/></svg>