<svg enable-background="new 0 0 800 800" height="800" viewBox="0 0 800 800" width="800" xmlns="http://www.w3.org/2000/svg"><g fill="#fff"><path d="m729.129 390.981v9.018c0 181.495-147.646 329.151-329.123 329.151-57.684-.038-114.58-15.306-164.535-44.149-45.373-26.2-83.908-62.957-112.23-106.899h111.419v-70.873h-202.958v202.971h70.87v-42.715c35.543 39.669 77.891 71.26 126.179 94.088 53.188 25.144 112.494 38.434 171.506 38.435h.007c44.122 0 87.573-7.205 129.143-21.414 43.014-14.702 83.053-36.604 119.006-65.093 46.979-37.226 85.602-85.426 111.693-139.389 26.093-53.963 39.888-114.171 39.894-174.112l.001-9.019z"/><path d="m70.871 399.999c0-181.495 147.647-329.152 329.124-329.152 57.685.039 114.579 15.305 164.535 44.15 45.372 26.199 83.907 62.956 112.229 106.899h-111.419v70.875h202.958v-202.972h-70.87v42.775c-34.601-38.412-76.807-70.19-123.293-92.671-53.961-26.095-114.162-39.891-174.135-39.896-53.991 0-106.373 10.577-155.69 31.437-47.631 20.146-90.406 48.985-127.138 85.716s-65.573 79.507-85.723 127.139c-20.863 49.318-31.443 101.704-31.448 155.7v9.018h70.87z"/></g></svg>