<svg enable-background="new 1920 1024 256 256" height="256" viewBox="1920 1024 256 256" width="256" xmlns="http://www.w3.org/2000/svg"><path d="m2163.537 1104c3.596 0 6.539-2.7 6.539-6v-20c0-3.3-2.943-6-6.539-6h-10.9v-24c0-13.25-11.717-24-26.158-24h-174.396c-14.442 0-26.159 10.75-26.159 24v208c0 13.25 11.717 24 26.159 24h174.396c14.441 0 26.158-10.75 26.158-24v-24h10.9c3.596 0 6.539-2.7 6.539-6v-20c0-3.3-2.943-6-6.539-6h-10.9v-32h10.9c3.596 0 6.539-2.7 6.539-6v-20c0-3.3-2.943-6-6.539-6h-10.9v-32zm-37.058 152h-174.396v-208h174.396zm-87.199-104c19.238 0 34.88-14.35 34.88-32s-15.643-32-34.88-32-34.879 14.35-34.879 32 15.641 32 34.879 32zm-48.83 64h97.662c6.758 0 12.207-4.3 12.207-9.6v-9.601c0-15.899-16.404-28.8-36.623-28.8-5.885 0-10.191 4-24.416 4-14.66 0-18.202-4-24.415-4-20.219 0-36.623 12.9-36.623 28.8v9.601c0 5.3 5.449 9.6 12.208 9.6z" fill="#f2f2f2"/></svg>