<svg enable-background="new 1920 1024 256 256" height="256" viewBox="1920 1024 256 256" width="256" xmlns="http://www.w3.org/2000/svg"><path d="m2156.419 1226.4c12.221-15.486 19.554-34.915 19.554-56.114 0-45.715-33.996-83.486-78.302-90.229-13.998-32.914-46.884-56.057-85.234-56.057-51.061 0-92.434 40.914-92.434 91.429 0 21.143 7.332 40.571 19.554 56.114-6.8 17.543-16.576 31.143-16.754 31.371-2.8 3.829-3.6 9.429-1.955 14.286 1.6 4.857 5.332 8 9.421 8 23.774 0 42.973-11.543 55.638-22.172 4.088 1.2 8.31 2.114 12.621 2.801 13.953 32.8 46.705 55.885 85.012 55.885 9.243 0 18.131-1.371 26.574-3.885 12.666 10.571 31.819 22.171 55.639 22.171 4.088 0 7.776-3.143 9.421-8 1.6-4.857.844-10.457-1.956-14.286-.179-.171-9.999-13.772-16.799-31.314zm-174.557-52.743-7.6 6.343c-6.266 5.2-12.665 9.314-19.152 12.229 1.199-2.686 2.399-5.543 3.555-8.457l6.888-17.771-11.021-14c-5.999-7.657-13.198-20.171-13.198-36.571 0-34.686 32.573-64 71.103-64 38.528 0 71.103 29.314 71.103 64s-32.574 64-71.103 64c-7.333 0-14.665-1.086-21.775-3.2zm159.581 33.2-10.977 13.942 6.888 17.771c1.156 2.914 2.355 5.771 3.556 8.457-6.488-2.914-12.888-7.028-19.153-12.229l-7.6-6.343-8.843 2.629c-7.11 2.114-14.442 3.2-21.775 3.2-23.997 0-45.417-11.486-58.349-28.4 45.017-6.172 79.68-44.229 79.68-90.457 0-1.943-.178-3.829-.312-5.714 28.619 8.286 50.083 32.457 50.083 60.572.001 16.401-7.199 28.915-13.198 36.572z" fill="#f2f2f2"/></svg>