<svg enable-background="new 768 768 256 256" height="256" viewBox="768 768 256 256" width="256" xmlns="http://www.w3.org/2000/svg"><path d="m938.667 896c0-11.778-4.167-21.833-12.5-30.167-8.334-8.333-18.39-12.5-30.167-12.5-11.778 0-21.833 4.167-30.167 12.5-8.333 8.333-12.5 18.389-12.5 30.167 0 11.777 4.167 21.833 12.5 30.167 8.333 8.333 18.389 12.5 30.167 12.5 11.777 0 21.833-4.167 30.167-12.5 8.333-8.334 12.5-18.39 12.5-30.167zm85.333-18.167v37c0 1.334-.444 2.611-1.333 3.834-.89 1.222-2 1.944-3.334 2.166l-30.833 4.667c-2.111 6-4.277 11.056-6.5 15.167 3.889 5.556 9.833 13.222 17.833 23 1.111 1.333 1.667 2.722 1.667 4.166s-.5 2.723-1.5 3.834c-3 4.11-8.5 10.11-16.5 18-8 7.889-13.223 11.833-15.667 11.833-1.333 0-2.777-.5-4.333-1.5l-23-18c-4.889 2.556-9.944 4.667-15.167 6.333-1.777 15.111-3.389 25.444-4.833 31-.777 3.111-2.777 4.667-6 4.667h-37c-1.556 0-2.917-.473-4.083-1.417-1.167-.944-1.805-2.139-1.917-3.583l-4.667-30.667c-5.445-1.777-10.445-3.833-15-6.166l-23.5 17.833c-1.111 1-2.5 1.5-4.167 1.5-1.555 0-2.944-.611-4.167-1.833-14-12.667-23.167-22-27.5-28-.778-1.111-1.167-2.39-1.167-3.834 0-1.333.444-2.61 1.333-3.833 1.667-2.333 4.5-6.027 8.5-11.083s7-8.973 9-11.75c-3-5.556-5.278-11.056-6.833-16.5l-30.5-4.5c-1.445-.223-2.611-.917-3.5-2.084-.889-1.166-1.333-2.472-1.333-3.916v-37c0-1.333.444-2.611 1.333-3.833s1.944-1.945 3.167-2.167l31-4.667c1.556-5.111 3.722-10.222 6.5-15.333-4.444-6.333-10.389-14-17.833-23-1.111-1.333-1.667-2.667-1.667-4 0-1.111.5-2.389 1.5-3.833 2.889-4 8.361-9.972 16.417-17.917 8.056-7.944 13.306-11.917 15.75-11.917 1.445 0 2.889.556 4.333 1.667l23 17.833c4.889-2.556 9.944-4.667 15.167-6.333 1.778-15.111 3.389-25.444 4.833-31 .778-3.111 2.778-4.667 6-4.667h37c1.556 0 2.917.472 4.083 1.417 1.167.944 1.806 2.139 1.917 3.583l4.667 30.667c5.444 1.778 10.444 3.833 15 6.167l23.667-17.834c1-1 2.334-1.5 4-1.5 1.444 0 2.834.556 4.167 1.667 14.333 13.222 23.5 22.667 27.5 28.333.777.889 1.167 2.111 1.167 3.667 0 1.333-.444 2.611-1.334 3.833-1.666 2.333-4.5 6.028-8.5 11.083s-7 8.972-9 11.75c2.89 5.555 5.167 11 6.834 16.333l30.5 4.667c1.444.222 2.61.917 3.5 2.083.889 1.167 1.333 2.473 1.333 3.917z" fill="#f2f2f2"/></svg>