<svg enable-background="new 1920 1024 256 256" height="256" viewBox="1920 1024 256 256" width="256" xmlns="http://www.w3.org/2000/svg"><path d="m2094.6 1176c-14.927 0-22.104 8-46.6 8s-31.621-8-46.6-8c-38.59 0-69.898 30.1-69.898 67.2v12.8c0 13.25 11.182 24 24.964 24h183.068c13.782 0 24.964-10.75 24.964-24v-12.8c0-37.1-31.309-67.2-69.898-67.2zm44.934 80h-183.068v-12.8c0-23.8 20.179-43.2 44.935-43.2 7.594 0 19.919 8 46.6 8 26.889 0 38.954-8 46.6-8 24.756 0 44.935 19.4 44.935 43.2v12.8zm-91.534-88c41.347 0 74.893-32.25 74.893-72s-33.546-72-74.893-72-74.892 32.25-74.892 72 33.545 72 74.892 72zm0-120c27.512 0 49.928 21.55 49.928 48s-22.416 48-49.928 48-49.928-21.55-49.928-48 22.416-48 49.928-48z" fill="#f2f2f2"/></svg>