<svg preserveAspectRatio="xMinYMid meet" viewBox="0 0 576 512" xmlns="http://www.w3.org/2000/svg"><path d="m0 64c0-35.3 28.7-64 64-64h160v128c0 17.7 14.3 32 32 32h128v38.6c-73.9 20.9-128 88.8-128 169.4 0 59.1 29.1 111.3 73.7 143.3-3.2.5-6.4.7-9.7.7h-256c-35.3 0-64-28.7-64-64zm384 64h-128v-128zm48 96a144 144 0 1 1 0 288 144 144 0 1 1 0-288zm16 80c0-8.8-7.2-16-16-16s-16 7.2-16 16v48h-48c-8.8 0-16 7.2-16 16s7.2 16 16 16h48v48c0 8.8 7.2 16 16 16s16-7.2 16-16v-48h48c8.8 0 16-7.2 16-16s-7.2-16-16-16h-48z"/></svg>