<svg enable-background="new -52 -52 128 128" height="128" viewBox="-52 -52 128 128" width="128" xmlns="http://www.w3.org/2000/svg"><path d="m3.021 76v-24.072h17.958v24.072zm-42.631-25.097 17.012-17.028 12.705 12.696-17.013 17.029zm73.492-4.324 12.697-12.697 17.02 17.025-12.692 12.692zm-21.87-1.104c-18.458 0-33.475-15.017-33.475-33.475s15.017-33.475 33.475-33.475 33.475 15.017 33.475 33.475-15.017 33.475-33.475 33.475zm0-48.991c-8.556 0-15.517 6.96-15.517 15.516s6.961 15.517 15.517 15.517c8.555 0 15.516-6.961 15.516-15.517s-6.961-15.516-15.516-15.516zm39.916 24.495v-17.958h24.072v17.958zm-103.928 0v-17.958h24.072v17.958zm12.394-47.881 12.706-12.694 17.011 17.022-12.69 12.699zm73.488 4.322 17.026-17.022 12.69 12.694-17.019 17.027zm-30.861-5.348v-24.072h17.958v24.072z" fill="#fff"/></svg>