<svg enable-background="new 288.64 411.945 18 18" height="18" viewBox="288.64 411.945 18 18" width="18" xmlns="http://www.w3.org/2000/svg"><path d="m306.387 420.309-1.802-1.8-6.308-6.3c-.353-.351-.923-.351-1.275 0l-6.308 6.3-1.802 1.8c-.346.357-.336.927.022 1.272.349.337.903.337 1.252 0l.264-.263v6.828c0 .994.807 1.8 1.802 1.8h2.703c.498 0 .901-.403.901-.9v-3.6c0-.497.403-.9.901-.9h1.803c.498 0 .901.403.901.9v3.6c0 .497.403.9.9.9h2.704c.995 0 1.802-.806 1.802-1.8v-6.828l.264.263c.358.346.929.336 1.274-.021.34-.35.34-.902.002-1.251z" fill="#2b2f30"/></svg>