<svg enable-background="new 0 0 24 24" height="24" viewBox="0 0 24 24" width="24" xmlns="http://www.w3.org/2000/svg"><path d="m0 0h24v24h-24z" fill="none"/><path d="m21 12.22c0-5.49-4.26-9.22-9-9.22-4.69 0-9 3.65-9 9.28-.6.34-1 .98-1 1.72v2c0 1.1.9 2 2 2h1v-6.1c0-3.87 3.13-7 7-7s7 3.13 7 7v7.1h-8v2h8c1.1 0 2-.9 2-2v-1.22c.59-.31 1-.92 1-1.64v-2.3c0-.7-.41-1.31-1-1.62z"/><circle cx="9" cy="13" r="1"/><circle cx="15" cy="13" r="1"/><path d="m18 11.03c-.48-2.85-2.96-5.03-5.95-5.03-3.03 0-6.29 2.51-6.03 6.45 2.47-1.01 4.33-3.21 4.86-5.89 1.31 2.63 4 4.44 7.12 4.47z"/></svg>