<?xml version="1.0" encoding="utf-8"?>
<!DOCTYPE svg PUBLIC "-//W3C//DTD SVG 1.1//EN" "http://www.w3.org/Graphics/SVG/1.1/DTD/svg11.dtd">
<svg version="1.1" id="Layer_1" xmlns="http://www.w3.org/2000/svg" xmlns:xlink="http://www.w3.org/1999/xlink" x="0px" y="0px"
	 width="1920px" height="70px" viewBox="0 40 1920 70" enable-background="new 0 40 1920 70" xml:space="preserve">
<path fill="#FFFFFF" d="M1920,50.671c-16.23,0.71-17.5,0.579-34.5,1.285c-53,1.414-103.041,5.382-154.667,10.639
	c-79.571,8.152-124.088,25.226-199.94,36.302c-66.721,9.729-145.905,5.172-214.484-3.178
	c-133.387-16.248-260.535-35.168-408.194-31.203C827.276,66.68,749.07,75.422,677.757,87.566
	c-73.556,12.539-160.674,29.996-245.387,16.391C360.291,92.348,322.775,66.82,256.055,52.794
	c-49.877-10.485-113.644-11.17-172.325-7.122c-30.451,2.173-56.483,3.311-83.729,5V111h1920L1920,50.671L1920,50.671z"/>
</svg>
