<?xml version="1.0" encoding="utf-8"?>
<!DOCTYPE svg PUBLIC "-//W3C//DTD SVG 1.1//EN" "http://www.w3.org/Graphics/SVG/1.1/DTD/svg11.dtd">
<svg version="1.1" id="Layer_1" xmlns="http://www.w3.org/2000/svg" x="0px" y="0px"
	 width="1920px" height="183.834px" viewBox="0 0 1920 183.834" enable-background="new 0 0 1920 183.834" xml:space="preserve">
<rect display="none" fill="#1D687F" width="1920" height="183.834"/>
<g>
	<path id="path1" opacity="0.35" fill="#FFFFFF" enable-background="new    " d="M841.436,183.834c-4.646-2.365-9.297-4.69-13.891-7.017
		c-109.979-54.65-242.324-82.832-373.576-79.651c-124.417,3.06-244.184,34.992-347.436,86.627h734.9L841.436,183.834
		L841.436,183.834z"/>
	<path id="path2" fill="#FFFFFF" d="M1920,97.76c-16.23,1.03-17.5,0.841-34.5,1.865c-53,2.051-103.041,7.808-154.667,15.435
		c-79.571,11.826-124.088,36.596-199.94,52.664c-66.721,14.112-145.907,7.504-214.486-4.608
		c-133.387-23.572-260.535-51.021-408.194-45.271c-80.938,3.14-159.144,15.825-230.457,33.444
		c-73.556,18.189-160.674,43.518-245.387,23.775c-72.079-16.844-109.595-53.875-176.315-74.227
		C206.177,85.625,142.41,84.634,83.729,90.507C53.278,93.659,27.246,95.308,0,97.76v86.074h1920V97.76z"/>
	<path id="path3" opacity="0.35" fill="#FFFFFF" enable-background="new    " d="M1920,119.181c-72.5-32.357-138.5-40.811-226.082-34.657
		c-60.923,7.138-101.01,46.495-154.604,65.665c-69.619,24.877-124.197-6.894-186.487-28.266
		c-84.059-28.793-187.91-20.962-262.888,19.822c-23.188,12.643-45.393,28.549-68.472,42.089H1920V119.181z"/>
	<path id="path4" opacity="0.35" fill="#FFFFFF" enable-background="new    " d="M1920,101.489c-12.5,1.117-19.537,0.205-33.75,2.33
		c-39.177,5.832-78.088,16.31-114.893,28.096c-36.807,11.787-73.774,24.227-113.313,28.916
		c-131.907,15.619-241.012-54.488-362.855-77.083c-110.416-20.474-227.396-2.773-334.584,25.532
		c-109.104,28.794-221.764,69.211-335.188,52c-79.845-12.112-146.674-51.348-220.448-77.124
		C274.208,38.395,135.354,100.97,0,123.116v60.718h1920V101.489z"/>
</g>
</svg>
