<?xml version="1.0" encoding="utf-8"?>
<!DOCTYPE svg PUBLIC "-//W3C//DTD SVG 1.1//EN" "http://www.w3.org/Graphics/SVG/1.1/DTD/svg11.dtd">
<svg version="1.1" id="Layer_1" xmlns="http://www.w3.org/2000/svg" xmlns:xlink="http://www.w3.org/1999/xlink" x="0px" y="0px"
	 width="1920px" height="70px" viewBox="0 -8.75 1920 70" enable-background="new 0 -8.75 1920 70" xml:space="preserve">
<path fill="#F6F7F8" d="M1920,1.921c-16.23,0.71-17.5,0.579-34.5,1.285c-53,1.414-103.041,5.382-154.667,10.639
	c-79.571,8.152-124.088,25.226-199.94,36.302c-66.721,9.729-145.905,5.172-214.484-3.178
	c-133.387-16.248-260.535-35.168-408.194-31.203C827.276,17.93,749.07,26.672,677.757,38.816
	C604.201,51.355,517.083,68.812,432.37,55.207C360.291,43.598,322.775,18.07,256.055,4.044C206.178-6.441,142.411-7.126,83.73-3.078
	c-30.451,2.173-56.483,3.311-83.729,5V62.25h1920L1920,1.921L1920,1.921z"/>
</svg>
