<svg height="100" width="100" xmlns="http://www.w3.org/2000/svg"><path d="m73.527282 61.829563q-2.39904 7.845509-8.947765 12.643579-6.548727 4.798079-14.783264 4.798079-8.234536 0-14.783262-4.798079-6.548727-4.79807-8.947764-12.643579-.518711-1.620968.259355-3.144689.778067-1.523711 2.463877-2.042419 1.620972-.518716 3.144686.25935 1.523713.778067 2.042424 2.463879 1.620972 5.187117 5.997596 8.39664 4.376623 3.209523 9.823088 3.209523 5.446467 0 9.82309-3.209523 4.376624-3.209523 5.997597-8.39664.518709-1.685812 2.074842-2.463879 1.556132-.778066 3.177105-.25935 1.620972.518708 2.399039 2.042419.778066 1.523721.259356 3.144689zm-32.030404-28.20491q0 3.436459-2.431457 5.867916-2.431458 2.431457-5.867918 2.431457-3.436461 0-5.867919-2.431457-2.431457-2.431457-2.431457-5.867916 0-3.436469 2.431457-5.867927 2.431458-2.431456 5.867919-2.431456 3.43646 0 5.867918 2.431456 2.431457 2.431458 2.431457 5.867927zm33.197503 0q0 3.436459-2.431457 5.867916-2.431459 2.431457-5.867919 2.431457-3.43646 0-5.867917-2.431457-2.431458-2.431457-2.431458-5.867916 0-3.436469 2.431458-5.867927 2.431457-2.431456 5.867917-2.431456 3.43646 0 5.867919 2.431456 2.431457 2.431458 2.431457 5.867927zm16.598748 16.598746q0-8.429052-3.306782-16.112461-3.306782-7.683408-8.850503-13.227131-5.543724-5.543723-13.22713-8.850504-7.683407-3.3067896-16.112461-3.3067896-8.429053 0-16.112459 3.3067896-7.683406 3.306781-13.22713 8.850504-5.543722 5.543723-8.850506 13.227131-3.3067827 7.683409-3.3067827 16.112461 0 8.429062 3.3067827 16.112471 3.306784 7.683408 8.850506 13.227131 5.543724 5.543727 13.22713 8.850507 7.683406 3.306782 16.112459 3.306782 8.429054 0 16.112461-3.306782 7.683406-3.30678 13.22713-8.850507 5.543721-5.543723 8.850503-13.227131 3.306782-7.683409 3.306782-16.112471zm8.299376 0q0 13.551335-6.678405 24.995396-6.678397 11.444065-18.122461 18.122471-11.444061 6.678404-24.995386 6.678404-13.551322 0-24.995384-6.678404-11.444061-6.678406-18.1224651-18.122471-6.6784039-11.444061-6.6784039-24.995396 0-13.551324 6.6784039-24.995386 6.6784041-11.444062 18.1224651-18.1224678 11.444062-6.67840562 24.995384-6.67840562 13.551325 0 24.995386 6.67840562 11.444064 6.6784058 18.122461 18.1224678 6.678405 11.444062 6.678405 24.995386z" fill="#AAA"/></svg>