<svg height="35" width="35" xmlns="http://www.w3.org/2000/svg">
    <path d="m25.997362 21.516621q-.848239 2.773972-3.1637 4.470447-2.315462 1.696479-5.226984 1.696479-2.91152 0-5.226982-1.696479-2.315462-1.696475-3.1637-4.470447-.1834029-.573133.091701-1.111882.2751046-.538745.8711637-.722147.573134-.183405 1.11188.0917.538746.275105.722149.871165.573134 1.834033 2.120596 2.968838 1.547462 1.134806 3.473192 1.134806 1.925732 0 3.473193-1.134806 1.547462-1.134805 2.120597-2.968838.183402-.59606.733611-.871165.550208-.275104 1.123343-.0917.573134.183402.848238.722147.275104.538749.0917 1.111882zm-11.32513-9.972538q0 1.215045-.859701 2.074746-.859701.859701-2.074745.859701-1.215045 0-2.0747457-.859701-.8597009-.859701-.8597009-2.074746 0-1.215048.8597009-2.0747491.8597007-.8597009 2.0747457-.8597009 1.215044 0 2.074745.8597009.859701.8597011.859701 2.0747491zm11.737786 0q0 1.215045-.859701 2.074746-.859701.859701-2.074745.859701-1.215045 0-2.074745-.859701-.859702-.859701-.859702-2.074746 0-1.215048.859702-2.0747491.8597-.8597009 2.074745-.8597009 1.215044 0 2.074745.8597009.859701.8597011.859701 2.0747491zm5.868892 5.868894q0-2.980298-1.169193-5.696956-1.169194-2.716657-3.129311-4.6767762-1.960119-1.9601192-4.676774-3.1293127-2.716656-1.1691967-5.696954-1.1691967-2.980297 0-5.696952 1.1691967-2.7166554 1.1691935-4.6767741 3.1293127-1.9601179 1.9601192-3.129312 4.6767762-1.1691936 2.716658-1.1691936 5.696956 0 2.980302 1.1691936 5.696959 1.1691941 2.716658 3.129312 4.676777 1.9601187 1.960121 4.6767741 3.129314 2.716655 1.169194 5.696952 1.169194 2.980298 0 5.696954-1.169194 2.716655-1.169193 4.676774-3.129314 1.960117-1.960119 3.129311-4.676777 1.169193-2.716657 1.169193-5.696959zm2.934447 0q0 4.791407-2.361313 8.837735-2.36131 4.04633-6.407638 6.407644-4.046326 2.361314-8.837728 2.361314-4.7914 0-8.8377265-2.361314-4.0463266-2.361314-6.4076391-6.407644-2.3613124-4.046328-2.3613124-8.837735 0-4.791403 2.3613124-8.8377316 2.3613125-4.0463288 6.4076391-6.407643 4.0463265-2.36131391 8.8377265-2.36131391 4.791402 0 8.837728 2.36131391 4.046328 2.3613142 6.407638 6.407643 2.361313 4.0463286 2.361313 8.8377316z"
          fill="#AAA"/>
</svg>