<svg enable-background="new 0 0 64 64" viewBox="0 0 64 64" xmlns="http://www.w3.org/2000/svg"><g fill="none" stroke="#4c5159" stroke-miterlimit="10" stroke-width="2"><path d="m12.8 48.4v-37.9c0-.1.1-.2.2-.2h36.8c.1 0 .2.1.2.2v32.4c0 .1-.1.2-.2.2h-31.7c-2.9 0-5.3 2.4-5.3 5.3 0 2.9 2.4 5.3 5.3 5.3h33.1"/><path d="m22.7 46.5h26.2"/><path d="m22.7 50.4h26.2"/><path d="m18.1 46.2c1.3 0 2.3 1 2.3 2.3s-1 2.3-2.3 2.3"/><path d="m39.7 22.4c0-2.5-2-4.6-4.6-4.6-1.3 0-2.4.5-3.2 1.4-.8-.8-2-1.4-3.2-1.4-2.5 0-4.6 2-4.6 4.6 0 1.2.5 2.3 1.3 3.2l6.5 6.5 6.7-6.6c.1-.1.3-.3.3-.3.4-.9.8-1.8.8-2.8z"/></g></svg>