<svg enable-background="new 0 0 12 12" height="12" preserveAspectRatio="xMinYMid meet" viewBox="0 0 12 12" width="12" xmlns="http://www.w3.org/2000/svg"><path d="m11.9 7c.1-.3.1-.7.1-1s0-.7-.1-1l-1.6-.3c-.1-.3-.2-.6-.4-.9l.9-1.3c-.3-.5-.8-1-1.3-1.4l-1.4.9c-.2-.1-.5-.2-.8-.3l-.3-1.6c-.3-.1-.7-.1-1-.1s-.7 0-1 .1l-.3 1.6c-.3.1-.6.2-.9.3l-1.3-.9c-.5.4-1 .9-1.4 1.4l.9 1.3c-.1.3-.2.6-.3.9l-1.6.3c-.1.3-.1.7-.1 1s0 .7.1 1l1.6.3c.1.3.2.6.3.8l-.9 1.4c.4.5.9 1 1.4 1.4l1.3-.9c.3.1.6.3.9.4l.3 1.5c.3.1.7.1 1 .1s.7 0 1-.1l.3-1.6c.3-.1.6-.2.9-.4l1.3.9c.5-.4 1-.9 1.4-1.4l-1-1.3c.1-.3.3-.6.4-.9zm-5.9.5c-.8 0-1.5-.7-1.5-1.5s.7-1.5 1.5-1.5 1.5.7 1.5 1.5-.7 1.5-1.5 1.5z" fill="#AAA"/></svg>