<svg enable-background="new 0 0 20 20" height="20" viewBox="0 0 20 20" width="20" xmlns="http://www.w3.org/2000/svg"><path d="m10 1c4.971 0 9 4.029 9 9s-4.029 9-9 9-9-4.029-9-9 4.029-9 9-9z" fill="none" stroke="#d1ead7" stroke-dasharray="4 3" stroke-width="2"/><path d="m15.652 7.188-.908-.916c-.189-.189-.495-.189-.684 0l-5.7 5.654-2.41-2.433c-.189-.189-.495-.189-.684 0l-.916.909c-.189.189-.189.495 0 .684l3.661 3.689c.189.188.495.188.684 0l6.959-6.899c.188-.189.188-.495 0-.684z" fill="#135021"/></svg>